%FSLAX34Y34*%
%MOMM*%
%LNSILK_TOP*%
G71*
G01*
%ADD10C, 0.00*%
%ADD11C, 0.10*%
%ADD12C, 0.16*%
%LPD*%
G54D10*
X-196862Y213837D02*
X-16862Y213837D01*
X-16862Y13837D01*
X-196862Y13837D01*
X-196862Y213837D01*
G54D10*
X-268862Y198837D02*
X-228862Y198837D01*
X-228862Y158837D01*
X-268862Y158837D01*
X-268862Y198837D01*
G54D11*
G75*
G01X-268862Y201337D02*
G03X-268862Y201337I-2500J0D01*
G01*
G54D12*
X-260250Y173282D02*
X-260250Y182170D01*
X-256917Y182170D01*
X-255584Y181615D01*
X-254917Y180504D01*
X-254917Y174948D01*
X-255584Y173837D01*
X-256917Y173282D01*
X-260250Y173282D01*
G54D12*
X-251806Y173282D02*
X-251806Y182170D01*
X-248473Y182170D01*
X-247140Y181615D01*
X-246473Y180504D01*
X-246473Y174948D01*
X-247140Y173837D01*
X-248473Y173282D01*
X-251806Y173282D01*
G54D12*
X-239362Y173282D02*
X-239362Y182170D01*
X-243362Y176615D01*
X-243362Y175504D01*
X-238029Y175504D01*
G54D10*
X-196862Y213837D02*
X-16862Y213837D01*
X-16862Y153837D01*
X-196862Y153837D01*
X-196862Y213837D01*
G54D10*
X-207862Y144837D02*
X-207862Y128837D01*
X-215862Y128837D01*
X-215862Y144837D01*
X-207862Y144837D01*
G54D10*
X-200862Y172337D02*
X-200862Y156337D01*
X-208862Y156337D01*
X-208862Y172337D01*
X-200862Y172337D01*
G54D10*
X-220362Y144837D02*
X-220362Y128837D01*
X-228362Y128837D01*
X-228362Y144837D01*
X-220362Y144837D01*
G54D10*
X-232862Y123837D02*
X-232862Y107837D01*
X-240862Y107837D01*
X-240862Y123837D01*
X-232862Y123837D01*
G54D10*
X-245362Y123837D02*
X-245362Y107837D01*
X-253362Y107837D01*
X-253362Y123837D01*
X-245362Y123837D01*
G54D10*
X-221362Y167837D02*
X-221362Y183837D01*
X-213362Y183837D01*
X-213362Y167837D01*
X-221362Y167837D01*
G54D10*
X-225362Y209837D02*
X-209362Y209837D01*
X-209362Y201837D01*
X-225362Y201837D01*
X-225362Y209837D01*
G54D10*
X-247362Y131837D02*
X-247362Y147837D01*
X-239362Y147837D01*
X-239362Y131837D01*
X-247362Y131837D01*
G54D10*
X-272362Y131837D02*
X-272362Y147837D01*
X-264362Y147837D01*
X-264362Y131837D01*
X-272362Y131837D01*
G54D10*
X-29862Y-137663D02*
X-29862Y-177663D01*
X-59862Y-177663D01*
X-59862Y-137663D01*
X-29862Y-137663D01*
G54D11*
G75*
G01X-59862Y-135663D02*
G03X-59862Y-135663I-1000J0D01*
G01*
G54D10*
X-69862Y-83164D02*
X-114862Y-83164D01*
X-114862Y-48164D01*
X-69862Y-48164D01*
X-69862Y-83164D01*
G54D11*
G75*
G01X-66172Y-53118D02*
G03X-66172Y-53118I-1000J0D01*
G01*
G54D10*
X-226362Y-121163D02*
X-226362Y-22163D01*
X-187362Y-22163D01*
X-187362Y-121163D01*
X-226362Y-121163D01*
G54D11*
G75*
G01X-190862Y-116163D02*
G03X-190862Y-116163I-2000J0D01*
G01*
G54D10*
X-114362Y-168163D02*
X-74362Y-168163D01*
X-74362Y-208163D01*
X-114362Y-208163D01*
X-114362Y-168163D01*
G54D10*
X-32862Y-56163D02*
X-32862Y-72163D01*
X-40862Y-72163D01*
X-40862Y-56163D01*
X-32862Y-56163D01*
G54D10*
X-45362Y-56163D02*
X-45362Y-72163D01*
X-53362Y-72163D01*
X-53362Y-56163D01*
X-45362Y-56163D01*
G54D10*
X-13862Y-25663D02*
X-29862Y-25663D01*
X-29862Y-17663D01*
X-13862Y-17663D01*
X-13862Y-25663D01*
G54D10*
X-13862Y-38163D02*
X-29862Y-38163D01*
X-29862Y-30163D01*
X-13862Y-30163D01*
X-13862Y-38163D01*
G54D10*
X-13862Y-50663D02*
X-29862Y-50663D01*
X-29862Y-42663D01*
X-13862Y-42663D01*
X-13862Y-50663D01*
G54D10*
X-36362Y-25663D02*
X-52362Y-25663D01*
X-52362Y-17663D01*
X-36362Y-17663D01*
X-36362Y-25663D01*
G54D10*
X-36362Y-38163D02*
X-52362Y-38163D01*
X-52362Y-30163D01*
X-36362Y-30163D01*
X-36362Y-38163D01*
G54D10*
X-36362Y-50663D02*
X-52362Y-50663D01*
X-52362Y-42663D01*
X-36362Y-42663D01*
X-36362Y-50663D01*
G54D10*
X-36362Y-85663D02*
X-52362Y-85663D01*
X-52362Y-77663D01*
X-36362Y-77663D01*
X-36362Y-85663D01*
G54D10*
X-36362Y-98163D02*
X-52362Y-98163D01*
X-52362Y-90163D01*
X-36362Y-90163D01*
X-36362Y-98163D01*
G54D10*
X-36362Y-110663D02*
X-52362Y-110663D01*
X-52362Y-102663D01*
X-36362Y-102663D01*
X-36362Y-110663D01*
G54D10*
X-100362Y-98663D02*
X-116362Y-98663D01*
X-116362Y-90663D01*
X-100362Y-90663D01*
X-100362Y-98663D01*
G54D10*
X-100362Y-111163D02*
X-116362Y-111163D01*
X-116362Y-103163D01*
X-100362Y-103163D01*
X-100362Y-111163D01*
G54D10*
X-128362Y-83663D02*
X-128362Y-67663D01*
X-120362Y-67663D01*
X-120362Y-83663D01*
X-128362Y-83663D01*
G54D10*
X-118362Y-52663D02*
X-134362Y-52663D01*
X-134362Y-44663D01*
X-118362Y-44663D01*
X-118362Y-52663D01*
G54D10*
X-134362Y-108663D02*
X-134362Y-92663D01*
X-126362Y-92663D01*
X-126362Y-108663D01*
X-134362Y-108663D01*
G54D10*
X-92362Y-125163D02*
X-108362Y-125163D01*
X-108362Y-117163D01*
X-92362Y-117163D01*
X-92362Y-125163D01*
G54D10*
X-115362Y-125163D02*
X-131362Y-125163D01*
X-131362Y-117163D01*
X-115362Y-117163D01*
X-115362Y-125163D01*
G54D10*
X-116862Y-35163D02*
X-116862Y-19163D01*
X-108862Y-19163D01*
X-108862Y-35163D01*
X-116862Y-35163D01*
G54D10*
X-146362Y-76663D02*
X-146362Y-60663D01*
X-138362Y-60663D01*
X-138362Y-76663D01*
X-146362Y-76663D01*
G54D10*
X-21362Y-181163D02*
X-21362Y-165162D01*
X-13362Y-165162D01*
X-13362Y-181163D01*
X-21362Y-181163D01*
G54D10*
X-21362Y-152163D02*
X-21362Y-136162D01*
X-13362Y-136162D01*
X-13362Y-152163D01*
X-21362Y-152163D01*
G54D10*
X-74362Y-160163D02*
X-74362Y-144162D01*
X-66362Y-144162D01*
X-66362Y-160163D01*
X-74362Y-160163D01*
G54D10*
X-86362Y-160163D02*
X-86362Y-144162D01*
X-78362Y-144162D01*
X-78362Y-160163D01*
X-86362Y-160163D01*
G54D10*
X-98362Y-160163D02*
X-98362Y-144162D01*
X-90362Y-144162D01*
X-90362Y-160163D01*
X-98362Y-160163D01*
G54D10*
X-130362Y-141162D02*
X-114361Y-141162D01*
X-114361Y-149162D01*
X-130362Y-149162D01*
X-130362Y-141162D01*
G54D10*
X-116362Y-129164D02*
X-100361Y-129164D01*
X-100361Y-137164D01*
X-116362Y-137164D01*
X-116362Y-129164D01*
G54D10*
X-263362Y-46163D02*
X-263362Y-30162D01*
X-255362Y-30162D01*
X-255362Y-46163D01*
X-263362Y-46163D01*
G54D10*
X-261362Y-94163D02*
X-261362Y-78162D01*
X-253362Y-78162D01*
X-253362Y-94163D01*
X-261362Y-94163D01*
G54D10*
X-189362Y-132163D02*
X-205362Y-132163D01*
X-205362Y-124163D01*
X-189362Y-124163D01*
X-189362Y-132163D01*
G54D12*
X-250290Y-37773D02*
X-251402Y-37107D01*
X-251957Y-35773D01*
X-251957Y-34440D01*
X-251402Y-33107D01*
X-250290Y-32440D01*
X-244735Y-32440D01*
X-243624Y-33107D01*
X-243068Y-34440D01*
X-243068Y-35773D01*
X-243624Y-37107D01*
X-244735Y-37773D01*
G54D12*
X-246402Y-40884D02*
X-243068Y-44217D01*
X-251957Y-44217D01*
G54D12*
X-249474Y-84773D02*
X-250585Y-84107D01*
X-251141Y-82773D01*
X-251141Y-81440D01*
X-250585Y-80107D01*
X-249474Y-79440D01*
X-243919Y-79440D01*
X-242808Y-80107D01*
X-242252Y-81440D01*
X-242252Y-82773D01*
X-242808Y-84107D01*
X-243919Y-84773D01*
G54D12*
X-251141Y-93217D02*
X-251141Y-87884D01*
X-250585Y-87884D01*
X-249474Y-88551D01*
X-246141Y-92551D01*
X-245030Y-93217D01*
X-243919Y-93217D01*
X-242808Y-92551D01*
X-242252Y-91217D01*
X-242252Y-89884D01*
X-242808Y-88551D01*
X-243919Y-87884D01*
G54D10*
X-205362Y-124163D02*
X-189362Y-124163D01*
X-189362Y-132163D01*
X-205362Y-132163D01*
X-205362Y-124163D01*
G54D12*
X-197885Y-144776D02*
X-198552Y-145887D01*
X-199885Y-146442D01*
X-201218Y-146442D01*
X-202552Y-145887D01*
X-203218Y-144776D01*
X-203218Y-139220D01*
X-202552Y-138109D01*
X-201218Y-137554D01*
X-199885Y-137554D01*
X-198552Y-138109D01*
X-197885Y-139220D01*
G54D12*
X-194774Y-139220D02*
X-194108Y-138109D01*
X-192774Y-137554D01*
X-191441Y-137554D01*
X-190108Y-138109D01*
X-189441Y-139220D01*
X-189441Y-140331D01*
X-190108Y-141442D01*
X-191441Y-141998D01*
X-190108Y-142554D01*
X-189441Y-143665D01*
X-189441Y-144776D01*
X-190108Y-145887D01*
X-191441Y-146442D01*
X-192774Y-146442D01*
X-194108Y-145887D01*
X-194774Y-144776D01*
G54D10*
X-215862Y-155663D02*
X-199862Y-155663D01*
X-199862Y-187663D01*
X-215862Y-187663D01*
X-215862Y-155663D01*
G54D10*
X-189862Y-155663D02*
X-173862Y-155663D01*
X-173862Y-187663D01*
X-189862Y-187663D01*
X-189862Y-155663D01*
G54D12*
X-210153Y-197996D02*
X-211264Y-197329D01*
X-211820Y-195996D01*
X-211820Y-194663D01*
X-211264Y-193329D01*
X-210153Y-192663D01*
X-204597Y-192663D01*
X-203486Y-193329D01*
X-202931Y-194663D01*
X-202931Y-195996D01*
X-203486Y-197329D01*
X-204597Y-197996D01*
G54D12*
X-211820Y-205107D02*
X-202931Y-205107D01*
X-208486Y-201107D01*
X-209597Y-201107D01*
X-209597Y-206440D01*
G54D12*
X-184108Y-197941D02*
X-185219Y-197274D01*
X-185775Y-195941D01*
X-185775Y-194608D01*
X-185219Y-193274D01*
X-184108Y-192608D01*
X-178553Y-192608D01*
X-177442Y-193274D01*
X-176886Y-194608D01*
X-176886Y-195941D01*
X-177442Y-197274D01*
X-178553Y-197941D01*
G54D12*
X-176886Y-206385D02*
X-176886Y-201052D01*
X-180775Y-201052D01*
X-180775Y-201718D01*
X-180219Y-203052D01*
X-180219Y-204385D01*
X-180775Y-205718D01*
X-181886Y-206385D01*
X-184108Y-206385D01*
X-185219Y-205718D01*
X-185775Y-204385D01*
X-185775Y-203052D01*
X-185219Y-201718D01*
X-184108Y-201052D01*
G54D10*
X-215862Y-155663D02*
X-199862Y-155663D01*
X-199862Y-166663D01*
X-215862Y-166663D01*
X-215862Y-155663D01*
G54D10*
X-189862Y-155663D02*
X-173862Y-155663D01*
X-173862Y-166663D01*
X-189862Y-166663D01*
X-189862Y-155663D01*
G54D12*
X-144885Y-124276D02*
X-145552Y-125387D01*
X-146885Y-125942D01*
X-148218Y-125942D01*
X-149552Y-125387D01*
X-150218Y-124276D01*
X-150218Y-118720D01*
X-149552Y-117609D01*
X-148218Y-117054D01*
X-146885Y-117054D01*
X-145552Y-117609D01*
X-144885Y-118720D01*
G54D12*
X-138441Y-121498D02*
X-139774Y-121498D01*
X-141108Y-120942D01*
X-141774Y-119831D01*
X-141774Y-118720D01*
X-141108Y-117609D01*
X-139774Y-117054D01*
X-138441Y-117054D01*
X-137108Y-117609D01*
X-136441Y-118720D01*
X-136441Y-119831D01*
X-137108Y-120942D01*
X-138441Y-121498D01*
X-137108Y-122054D01*
X-136441Y-123165D01*
X-136441Y-124276D01*
X-137108Y-125387D01*
X-138441Y-125942D01*
X-139774Y-125942D01*
X-141108Y-125387D01*
X-141774Y-124276D01*
X-141774Y-123165D01*
X-141108Y-122054D01*
X-139774Y-121498D01*
G54D12*
X-82385Y-124276D02*
X-83052Y-125387D01*
X-84385Y-125942D01*
X-85718Y-125942D01*
X-87052Y-125387D01*
X-87718Y-124276D01*
X-87718Y-118720D01*
X-87052Y-117609D01*
X-85718Y-117054D01*
X-84385Y-117054D01*
X-83052Y-117609D01*
X-82385Y-118720D01*
G54D12*
X-79274Y-124276D02*
X-78608Y-125387D01*
X-77274Y-125942D01*
X-75941Y-125942D01*
X-74608Y-125387D01*
X-73941Y-124276D01*
X-73941Y-121498D01*
X-73941Y-120942D01*
X-75941Y-122054D01*
X-77274Y-122054D01*
X-78608Y-121498D01*
X-79274Y-120387D01*
X-79274Y-118720D01*
X-78608Y-117609D01*
X-77274Y-117054D01*
X-75941Y-117054D01*
X-74608Y-117609D01*
X-73941Y-118720D01*
X-73941Y-121498D01*
G54D10*
X-52362Y-115664D02*
X-36361Y-115664D01*
X-36361Y-123664D01*
X-52362Y-123664D01*
X-52362Y-115664D01*
G54D12*
X-67485Y-115154D02*
X-67485Y-124043D01*
X-62819Y-124043D01*
G54D12*
X-59707Y-118487D02*
X-56374Y-115154D01*
X-56374Y-124043D01*
G54D12*
X-129904Y-198129D02*
X-129904Y-207018D01*
X-125238Y-207018D01*
G54D12*
X-116793Y-207018D02*
X-122126Y-207018D01*
X-122126Y-206462D01*
X-121460Y-205351D01*
X-117460Y-202018D01*
X-116793Y-200906D01*
X-116793Y-199795D01*
X-117460Y-198684D01*
X-118793Y-198129D01*
X-120126Y-198129D01*
X-121460Y-198684D01*
X-122126Y-199795D01*
G54D10*
X-61362Y-39663D02*
X-77362Y-39663D01*
X-77362Y-31663D01*
X-61362Y-31663D01*
X-61362Y-39663D01*
G54D10*
X-105862Y-35163D02*
X-105862Y-19163D01*
X-97862Y-19163D01*
X-97862Y-35163D01*
X-105862Y-35163D01*
G54D12*
X-87830Y-24152D02*
X-86719Y-24819D01*
X-86164Y-26152D01*
X-86164Y-27486D01*
X-86719Y-28819D01*
X-87830Y-29486D01*
X-93386Y-29486D01*
X-94497Y-28819D01*
X-95052Y-27486D01*
X-95052Y-26152D01*
X-94497Y-24819D01*
X-93386Y-24152D01*
G54D12*
X-93386Y-15708D02*
X-94497Y-16375D01*
X-95052Y-17708D01*
X-95052Y-19042D01*
X-94497Y-20375D01*
X-93386Y-21042D01*
X-90608Y-21042D01*
X-90052Y-21042D01*
X-91164Y-19042D01*
X-91164Y-17708D01*
X-90608Y-16375D01*
X-89497Y-15708D01*
X-87830Y-15708D01*
X-86719Y-16375D01*
X-86164Y-17708D01*
X-86164Y-19042D01*
X-86719Y-20375D01*
X-87830Y-21042D01*
X-90608Y-21042D01*
G54D12*
X-88995Y-40774D02*
X-89661Y-41885D01*
X-90995Y-42441D01*
X-92328Y-42441D01*
X-93661Y-41885D01*
X-94328Y-40774D01*
X-94328Y-35219D01*
X-93661Y-34108D01*
X-92328Y-33552D01*
X-90995Y-33552D01*
X-89661Y-34108D01*
X-88995Y-35219D01*
G54D12*
X-85884Y-33552D02*
X-80551Y-33552D01*
X-81217Y-34663D01*
X-82551Y-36330D01*
X-83884Y-38552D01*
X-84551Y-40219D01*
X-84551Y-42441D01*
G54D12*
X-140006Y-149870D02*
X-141117Y-149203D01*
X-141672Y-147870D01*
X-141672Y-146537D01*
X-141117Y-145203D01*
X-140006Y-144537D01*
X-134450Y-144537D01*
X-133339Y-145203D01*
X-132783Y-146537D01*
X-132783Y-147870D01*
X-133339Y-149203D01*
X-134450Y-149870D01*
G54D12*
X-136117Y-152981D02*
X-132783Y-156314D01*
X-141672Y-156314D01*
G54D12*
X-134450Y-164758D02*
X-140006Y-164758D01*
X-141117Y-164091D01*
X-141672Y-162758D01*
X-141672Y-161425D01*
X-141117Y-160091D01*
X-140006Y-159425D01*
X-134450Y-159425D01*
X-133339Y-160091D01*
X-132783Y-161425D01*
X-132783Y-162758D01*
X-133339Y-164091D01*
X-134450Y-164758D01*
G54D12*
X-123734Y-151673D02*
X-124845Y-151006D01*
X-125400Y-149673D01*
X-125400Y-148340D01*
X-124845Y-147006D01*
X-123734Y-146340D01*
X-118178Y-146340D01*
X-117067Y-147006D01*
X-116511Y-148340D01*
X-116511Y-149673D01*
X-117067Y-151006D01*
X-118178Y-151673D01*
G54D12*
X-119845Y-154784D02*
X-116511Y-158117D01*
X-125400Y-158117D01*
G54D12*
X-119845Y-161228D02*
X-116511Y-164561D01*
X-125400Y-164561D01*
G54D12*
X-108158Y-149901D02*
X-109269Y-149234D01*
X-109825Y-147901D01*
X-109825Y-146568D01*
X-109269Y-145234D01*
X-108158Y-144568D01*
X-102603Y-144568D01*
X-101492Y-145234D01*
X-100936Y-146568D01*
X-100936Y-147901D01*
X-101492Y-149234D01*
X-102603Y-149901D01*
G54D12*
X-104269Y-153012D02*
X-100936Y-156345D01*
X-109825Y-156345D01*
G54D12*
X-109825Y-164789D02*
X-109825Y-159456D01*
X-109269Y-159456D01*
X-108158Y-160122D01*
X-104825Y-164122D01*
X-103714Y-164789D01*
X-102603Y-164789D01*
X-101492Y-164122D01*
X-100936Y-162789D01*
X-100936Y-161456D01*
X-101492Y-160122D01*
X-102603Y-159456D01*
G54D12*
X-210376Y-95909D02*
X-201487Y-95909D01*
X-201487Y-99243D01*
X-202042Y-100576D01*
X-203153Y-101243D01*
X-208709Y-101243D01*
X-209820Y-100576D01*
X-210376Y-99243D01*
X-210376Y-95909D01*
G54D12*
X-210376Y-104353D02*
X-201487Y-104353D01*
X-201487Y-107687D01*
X-202042Y-109020D01*
X-203153Y-109687D01*
X-208709Y-109687D01*
X-209820Y-109020D01*
X-210376Y-107687D01*
X-210376Y-104353D01*
G54D12*
X-204820Y-112797D02*
X-201487Y-116131D01*
X-210376Y-116131D01*
G54D12*
X-100952Y-87440D02*
X-100952Y-78551D01*
X-97618Y-78551D01*
X-96285Y-79107D01*
X-95618Y-80218D01*
X-95618Y-85774D01*
X-96285Y-86885D01*
X-97618Y-87440D01*
X-100952Y-87440D01*
G54D12*
X-92508Y-87440D02*
X-92508Y-78551D01*
X-89174Y-78551D01*
X-87841Y-79107D01*
X-87174Y-80218D01*
X-87174Y-85774D01*
X-87841Y-86885D01*
X-89174Y-87440D01*
X-92508Y-87440D01*
G54D12*
X-78730Y-87440D02*
X-84064Y-87440D01*
X-84064Y-86885D01*
X-83397Y-85774D01*
X-79397Y-82440D01*
X-78730Y-81329D01*
X-78730Y-80218D01*
X-79397Y-79107D01*
X-80730Y-78551D01*
X-82064Y-78551D01*
X-83397Y-79107D01*
X-84064Y-80218D01*
G54D12*
X-48837Y-183412D02*
X-39948Y-183412D01*
X-39948Y-186745D01*
X-40504Y-188079D01*
X-41615Y-188745D01*
X-47170Y-188745D01*
X-48281Y-188079D01*
X-48837Y-186745D01*
X-48837Y-183412D01*
G54D12*
X-48837Y-191856D02*
X-39948Y-191856D01*
X-39948Y-195189D01*
X-40504Y-196523D01*
X-41615Y-197189D01*
X-47170Y-197189D01*
X-48281Y-196523D01*
X-48837Y-195189D01*
X-48837Y-191856D01*
G54D12*
X-41615Y-200300D02*
X-40504Y-200967D01*
X-39948Y-202300D01*
X-39948Y-203633D01*
X-40504Y-204967D01*
X-41615Y-205633D01*
X-42726Y-205633D01*
X-43837Y-204967D01*
X-44393Y-203633D01*
X-44948Y-204967D01*
X-46059Y-205633D01*
X-47170Y-205633D01*
X-48281Y-204967D01*
X-48837Y-203633D01*
X-48837Y-202300D01*
X-48281Y-200967D01*
X-47170Y-200300D01*
G54D12*
X-20147Y-191542D02*
X-21258Y-190875D01*
X-21814Y-189542D01*
X-21814Y-188208D01*
X-21258Y-186875D01*
X-20147Y-186208D01*
X-14592Y-186208D01*
X-13481Y-186875D01*
X-12925Y-188208D01*
X-12925Y-189542D01*
X-13481Y-190875D01*
X-14592Y-191542D01*
G54D12*
X-21814Y-199986D02*
X-21814Y-194652D01*
X-21258Y-194652D01*
X-20147Y-195319D01*
X-16814Y-199319D01*
X-15703Y-199986D01*
X-14592Y-199986D01*
X-13481Y-199319D01*
X-12925Y-197986D01*
X-12925Y-196652D01*
X-13481Y-195319D01*
X-14592Y-194652D01*
G54D12*
X-12925Y-208430D02*
X-12925Y-203096D01*
X-16814Y-203096D01*
X-16814Y-203763D01*
X-16258Y-205096D01*
X-16258Y-206430D01*
X-16814Y-207763D01*
X-17925Y-208430D01*
X-20147Y-208430D01*
X-21258Y-207763D01*
X-21814Y-206430D01*
X-21814Y-205096D01*
X-21258Y-203763D01*
X-20147Y-203096D01*
G54D12*
X-16576Y-115739D02*
X-17687Y-115072D01*
X-18243Y-113739D01*
X-18243Y-112405D01*
X-17687Y-111072D01*
X-16576Y-110405D01*
X-11020Y-110405D01*
X-9909Y-111072D01*
X-9354Y-112405D01*
X-9354Y-113739D01*
X-9909Y-115072D01*
X-11020Y-115739D01*
G54D12*
X-18243Y-124183D02*
X-18243Y-118849D01*
X-17687Y-118849D01*
X-16576Y-119516D01*
X-13243Y-123516D01*
X-12132Y-124183D01*
X-11020Y-124183D01*
X-9909Y-123516D01*
X-9354Y-122183D01*
X-9354Y-120849D01*
X-9909Y-119516D01*
X-11020Y-118849D01*
G54D12*
X-18243Y-131293D02*
X-9354Y-131293D01*
X-14909Y-127293D01*
X-16020Y-127293D01*
X-16020Y-132627D01*
G54D12*
X-63407Y-59779D02*
X-64518Y-59113D01*
X-65074Y-57779D01*
X-65074Y-56446D01*
X-64518Y-55113D01*
X-63407Y-54446D01*
X-57852Y-54446D01*
X-56741Y-55113D01*
X-56185Y-56446D01*
X-56185Y-57779D01*
X-56741Y-59113D01*
X-57852Y-59779D01*
G54D12*
X-59518Y-62890D02*
X-56185Y-66223D01*
X-65074Y-66223D01*
G54D12*
X-57852Y-74667D02*
X-56741Y-74001D01*
X-56185Y-72667D01*
X-56185Y-71334D01*
X-56741Y-70001D01*
X-57852Y-69334D01*
X-60629Y-69334D01*
X-61185Y-69334D01*
X-60074Y-71334D01*
X-60074Y-72667D01*
X-60629Y-74001D01*
X-61741Y-74667D01*
X-63407Y-74667D01*
X-64518Y-74001D01*
X-65074Y-72667D01*
X-65074Y-71334D01*
X-64518Y-70001D01*
X-63407Y-69334D01*
X-60629Y-69334D01*
G54D12*
X-28879Y-58986D02*
X-29990Y-58319D01*
X-30546Y-56986D01*
X-30546Y-55652D01*
X-29990Y-54319D01*
X-28879Y-53652D01*
X-23324Y-53652D01*
X-22212Y-54319D01*
X-21657Y-55652D01*
X-21657Y-56986D01*
X-22212Y-58319D01*
X-23324Y-58986D01*
G54D12*
X-30546Y-67430D02*
X-30546Y-62096D01*
X-29990Y-62096D01*
X-28879Y-62763D01*
X-25546Y-66763D01*
X-24435Y-67430D01*
X-23324Y-67430D01*
X-22212Y-66763D01*
X-21657Y-65430D01*
X-21657Y-64096D01*
X-22212Y-62763D01*
X-23324Y-62096D01*
G54D12*
X-23324Y-70540D02*
X-22212Y-71207D01*
X-21657Y-72540D01*
X-21657Y-73874D01*
X-22212Y-75207D01*
X-23324Y-75874D01*
X-24435Y-75874D01*
X-25546Y-75207D01*
X-26101Y-73874D01*
X-26657Y-75207D01*
X-27768Y-75874D01*
X-28879Y-75874D01*
X-29990Y-75207D01*
X-30546Y-73874D01*
X-30546Y-72540D01*
X-29990Y-71207D01*
X-28879Y-70540D01*
G54D12*
X-68891Y-84588D02*
X-69558Y-85699D01*
X-70891Y-86255D01*
X-72225Y-86255D01*
X-73558Y-85699D01*
X-74225Y-84588D01*
X-74225Y-79033D01*
X-73558Y-77922D01*
X-72225Y-77366D01*
X-70891Y-77366D01*
X-69558Y-77922D01*
X-68891Y-79033D01*
G54D12*
X-65781Y-80699D02*
X-62447Y-77366D01*
X-62447Y-86255D01*
G54D12*
X-59337Y-77366D02*
X-54003Y-77366D01*
X-54670Y-78477D01*
X-56003Y-80144D01*
X-57337Y-82366D01*
X-58003Y-84033D01*
X-58003Y-86255D01*
G54D12*
X-68891Y-96892D02*
X-69558Y-98003D01*
X-70891Y-98558D01*
X-72225Y-98558D01*
X-73558Y-98003D01*
X-74225Y-96892D01*
X-74225Y-91336D01*
X-73558Y-90225D01*
X-72225Y-89669D01*
X-70891Y-89669D01*
X-69558Y-90225D01*
X-68891Y-91336D01*
G54D12*
X-65781Y-93003D02*
X-62447Y-89669D01*
X-62447Y-98558D01*
G54D12*
X-56003Y-94114D02*
X-57337Y-94114D01*
X-58670Y-93558D01*
X-59337Y-92447D01*
X-59337Y-91336D01*
X-58670Y-90225D01*
X-57337Y-89669D01*
X-56003Y-89669D01*
X-54670Y-90225D01*
X-54003Y-91336D01*
X-54003Y-92447D01*
X-54670Y-93558D01*
X-56003Y-94114D01*
X-54670Y-94669D01*
X-54003Y-95780D01*
X-54003Y-96892D01*
X-54670Y-98003D01*
X-56003Y-98558D01*
X-57337Y-98558D01*
X-58670Y-98003D01*
X-59337Y-96892D01*
X-59337Y-95780D01*
X-58670Y-94669D01*
X-57337Y-94114D01*
G54D12*
X-68891Y-109195D02*
X-69558Y-110306D01*
X-70891Y-110861D01*
X-72225Y-110861D01*
X-73558Y-110306D01*
X-74225Y-109195D01*
X-74225Y-103639D01*
X-73558Y-102528D01*
X-72225Y-101972D01*
X-70891Y-101972D01*
X-69558Y-102528D01*
X-68891Y-103639D01*
G54D12*
X-65781Y-105306D02*
X-62447Y-101972D01*
X-62447Y-110861D01*
G54D12*
X-59337Y-109195D02*
X-58670Y-110306D01*
X-57337Y-110861D01*
X-56003Y-110861D01*
X-54670Y-110306D01*
X-54003Y-109195D01*
X-54003Y-106417D01*
X-54003Y-105861D01*
X-56003Y-106972D01*
X-57337Y-106972D01*
X-58670Y-106417D01*
X-59337Y-105306D01*
X-59337Y-103639D01*
X-58670Y-102528D01*
X-57337Y-101972D01*
X-56003Y-101972D01*
X-54670Y-102528D01*
X-54003Y-103639D01*
X-54003Y-106417D01*
G54D12*
X-70082Y-21882D02*
X-70749Y-22993D01*
X-72082Y-23549D01*
X-73415Y-23549D01*
X-74749Y-22993D01*
X-75415Y-21882D01*
X-75415Y-16327D01*
X-74749Y-15215D01*
X-73415Y-14660D01*
X-72082Y-14660D01*
X-70749Y-15215D01*
X-70082Y-16327D01*
G54D12*
X-66971Y-17993D02*
X-63638Y-14660D01*
X-63638Y-23549D01*
G54D12*
X-60527Y-16327D02*
X-59861Y-15215D01*
X-58527Y-14660D01*
X-57194Y-14660D01*
X-55861Y-15215D01*
X-55194Y-16327D01*
X-55194Y-17438D01*
X-55861Y-18549D01*
X-57194Y-19104D01*
X-55861Y-19660D01*
X-55194Y-20771D01*
X-55194Y-21882D01*
X-55861Y-22993D01*
X-57194Y-23549D01*
X-58527Y-23549D01*
X-59861Y-22993D01*
X-60527Y-21882D01*
G54D12*
X-70082Y-49266D02*
X-70749Y-50378D01*
X-72082Y-50933D01*
X-73415Y-50933D01*
X-74749Y-50378D01*
X-75415Y-49266D01*
X-75415Y-43711D01*
X-74749Y-42600D01*
X-73415Y-42044D01*
X-72082Y-42044D01*
X-70749Y-42600D01*
X-70082Y-43711D01*
G54D12*
X-66971Y-45378D02*
X-63638Y-42044D01*
X-63638Y-50933D01*
G54D12*
X-55194Y-42044D02*
X-60527Y-42044D01*
X-60527Y-45933D01*
X-59861Y-45933D01*
X-58527Y-45378D01*
X-57194Y-45378D01*
X-55861Y-45933D01*
X-55194Y-47044D01*
X-55194Y-49266D01*
X-55861Y-50378D01*
X-57194Y-50933D01*
X-58527Y-50933D01*
X-59861Y-50378D01*
X-60527Y-49266D01*
G54D12*
X-70082Y-33391D02*
X-70749Y-34503D01*
X-72082Y-35058D01*
X-73415Y-35058D01*
X-74749Y-34503D01*
X-75415Y-33391D01*
X-75415Y-27836D01*
X-74749Y-26725D01*
X-73415Y-26169D01*
X-72082Y-26169D01*
X-70749Y-26725D01*
X-70082Y-27836D01*
G54D12*
X-66971Y-29503D02*
X-63638Y-26169D01*
X-63638Y-35058D01*
G54D12*
X-56527Y-35058D02*
X-56527Y-26169D01*
X-60527Y-31725D01*
X-60527Y-32836D01*
X-55194Y-32836D01*
G54D12*
X-35951Y-23866D02*
X-36617Y-24978D01*
X-37951Y-25533D01*
X-39284Y-25533D01*
X-40617Y-24978D01*
X-41284Y-23866D01*
X-41284Y-18311D01*
X-40617Y-17200D01*
X-39284Y-16644D01*
X-37951Y-16644D01*
X-36617Y-17200D01*
X-35951Y-18311D01*
G54D12*
X-27507Y-25533D02*
X-32840Y-25533D01*
X-32840Y-24978D01*
X-32173Y-23866D01*
X-28173Y-20533D01*
X-27507Y-19422D01*
X-27507Y-18311D01*
X-28173Y-17200D01*
X-29507Y-16644D01*
X-30840Y-16644D01*
X-32173Y-17200D01*
X-32840Y-18311D01*
G54D12*
X-19063Y-18311D02*
X-19063Y-23866D01*
X-19729Y-24978D01*
X-21063Y-25533D01*
X-22396Y-25533D01*
X-23729Y-24978D01*
X-24396Y-23866D01*
X-24396Y-18311D01*
X-23729Y-17200D01*
X-22396Y-16644D01*
X-21063Y-16644D01*
X-19729Y-17200D01*
X-19063Y-18311D01*
G54D12*
X-35951Y-36963D02*
X-36617Y-38074D01*
X-37951Y-38630D01*
X-39284Y-38630D01*
X-40617Y-38074D01*
X-41284Y-36963D01*
X-41284Y-31408D01*
X-40617Y-30297D01*
X-39284Y-29741D01*
X-37951Y-29741D01*
X-36617Y-30297D01*
X-35951Y-31408D01*
G54D12*
X-27507Y-38630D02*
X-32840Y-38630D01*
X-32840Y-38074D01*
X-32173Y-36963D01*
X-28173Y-33630D01*
X-27507Y-32519D01*
X-27507Y-31408D01*
X-28173Y-30297D01*
X-29507Y-29741D01*
X-30840Y-29741D01*
X-32173Y-30297D01*
X-32840Y-31408D01*
G54D12*
X-24396Y-33074D02*
X-21063Y-29741D01*
X-21063Y-38630D01*
G54D12*
X-35951Y-49663D02*
X-36617Y-50774D01*
X-37951Y-51330D01*
X-39284Y-51330D01*
X-40617Y-50774D01*
X-41284Y-49663D01*
X-41284Y-44108D01*
X-40617Y-42997D01*
X-39284Y-42441D01*
X-37951Y-42441D01*
X-36617Y-42997D01*
X-35951Y-44108D01*
G54D12*
X-27507Y-51330D02*
X-32840Y-51330D01*
X-32840Y-50774D01*
X-32173Y-49663D01*
X-28173Y-46330D01*
X-27507Y-45219D01*
X-27507Y-44108D01*
X-28173Y-42997D01*
X-29507Y-42441D01*
X-30840Y-42441D01*
X-32173Y-42997D01*
X-32840Y-44108D01*
G54D12*
X-19063Y-51330D02*
X-24396Y-51330D01*
X-24396Y-50774D01*
X-23729Y-49663D01*
X-19729Y-46330D01*
X-19063Y-45219D01*
X-19063Y-44108D01*
X-19729Y-42997D01*
X-21063Y-42441D01*
X-22396Y-42441D01*
X-23729Y-42997D01*
X-24396Y-44108D01*
G54D12*
X-153649Y-65682D02*
X-154760Y-67682D01*
X-155871Y-68349D01*
X-158093Y-68349D01*
G54D12*
X-158093Y-63016D02*
X-149204Y-63016D01*
X-149204Y-66349D01*
X-149760Y-67682D01*
X-150871Y-68349D01*
X-151982Y-68349D01*
X-153093Y-67682D01*
X-153649Y-66349D01*
X-153649Y-63016D01*
G54D12*
X-152538Y-71460D02*
X-149204Y-74793D01*
X-158093Y-74793D01*
G54D12*
X-139355Y-37605D02*
X-137355Y-38717D01*
X-136688Y-39828D01*
X-136688Y-42050D01*
G54D12*
X-142022Y-42050D02*
X-142022Y-33161D01*
X-138688Y-33161D01*
X-137355Y-33717D01*
X-136688Y-34828D01*
X-136688Y-35939D01*
X-137355Y-37050D01*
X-138688Y-37605D01*
X-142022Y-37605D01*
G54D12*
X-128244Y-42050D02*
X-133578Y-42050D01*
X-133578Y-41494D01*
X-132911Y-40383D01*
X-128911Y-37050D01*
X-128244Y-35939D01*
X-128244Y-34828D01*
X-128911Y-33717D01*
X-130244Y-33161D01*
X-131578Y-33161D01*
X-132911Y-33717D01*
X-133578Y-34828D01*
G54D12*
X-127751Y-19044D02*
X-128862Y-21044D01*
X-129973Y-21711D01*
X-132195Y-21711D01*
G54D12*
X-132195Y-16377D02*
X-123306Y-16377D01*
X-123306Y-19711D01*
X-123862Y-21044D01*
X-124973Y-21711D01*
X-126084Y-21711D01*
X-127195Y-21044D01*
X-127751Y-19711D01*
X-127751Y-16377D01*
G54D12*
X-124973Y-24821D02*
X-123862Y-25488D01*
X-123306Y-26821D01*
X-123306Y-28155D01*
X-123862Y-29488D01*
X-124973Y-30155D01*
X-126084Y-30155D01*
X-127195Y-29488D01*
X-127751Y-28155D01*
X-128306Y-29488D01*
X-129418Y-30155D01*
X-130529Y-30155D01*
X-131640Y-29488D01*
X-132195Y-28155D01*
X-132195Y-26821D01*
X-131640Y-25488D01*
X-130529Y-24821D01*
G54D12*
X-133704Y-72622D02*
X-134815Y-74622D01*
X-135926Y-75289D01*
X-138148Y-75289D01*
G54D12*
X-138148Y-69955D02*
X-129260Y-69955D01*
X-129260Y-73289D01*
X-129815Y-74622D01*
X-130926Y-75289D01*
X-132037Y-75289D01*
X-133148Y-74622D01*
X-133704Y-73289D01*
X-133704Y-69955D01*
G54D12*
X-138148Y-82399D02*
X-129260Y-82399D01*
X-134815Y-78399D01*
X-135926Y-78399D01*
X-135926Y-83733D01*
G54D12*
X-141642Y-96832D02*
X-142753Y-98832D01*
X-143864Y-99498D01*
X-146086Y-99498D01*
G54D12*
X-146086Y-94165D02*
X-137197Y-94165D01*
X-137197Y-97498D01*
X-137753Y-98832D01*
X-138864Y-99498D01*
X-139975Y-99498D01*
X-141086Y-98832D01*
X-141642Y-97498D01*
X-141642Y-94165D01*
G54D12*
X-137197Y-107942D02*
X-137197Y-102609D01*
X-141086Y-102609D01*
X-141086Y-103276D01*
X-140530Y-104609D01*
X-140530Y-105942D01*
X-141086Y-107276D01*
X-142197Y-107942D01*
X-144419Y-107942D01*
X-145530Y-107276D01*
X-146086Y-105942D01*
X-146086Y-104609D01*
X-145530Y-103276D01*
X-144419Y-102609D01*
G54D12*
X-93476Y-133597D02*
X-91476Y-134708D01*
X-90810Y-135819D01*
X-90810Y-138041D01*
G54D12*
X-96143Y-138041D02*
X-96143Y-129152D01*
X-92810Y-129152D01*
X-91476Y-129708D01*
X-90810Y-130819D01*
X-90810Y-131930D01*
X-91476Y-133041D01*
X-92810Y-133597D01*
X-96143Y-133597D01*
G54D12*
X-82366Y-130819D02*
X-83032Y-129708D01*
X-84366Y-129152D01*
X-85699Y-129152D01*
X-87032Y-129708D01*
X-87699Y-130819D01*
X-87699Y-133597D01*
X-87699Y-134152D01*
X-85699Y-133041D01*
X-84366Y-133041D01*
X-83032Y-133597D01*
X-82366Y-134708D01*
X-82366Y-136375D01*
X-83032Y-137486D01*
X-84366Y-138041D01*
X-85699Y-138041D01*
X-87032Y-137486D01*
X-87699Y-136375D01*
X-87699Y-133597D01*
G54D12*
X-144673Y-137566D02*
X-142673Y-138677D01*
X-142007Y-139788D01*
X-142007Y-142010D01*
G54D12*
X-147340Y-142010D02*
X-147340Y-133121D01*
X-144007Y-133121D01*
X-142673Y-133677D01*
X-142007Y-134788D01*
X-142007Y-135899D01*
X-142673Y-137010D01*
X-144007Y-137566D01*
X-147340Y-137566D01*
G54D12*
X-138896Y-133121D02*
X-133563Y-133121D01*
X-134229Y-134232D01*
X-135563Y-135899D01*
X-136896Y-138121D01*
X-137563Y-139788D01*
X-137563Y-142010D01*
G54D12*
X-217982Y192036D02*
X-218649Y190925D01*
X-219982Y190370D01*
X-221315Y190370D01*
X-222649Y190925D01*
X-223315Y192036D01*
X-223315Y197592D01*
X-222649Y198703D01*
X-221315Y199259D01*
X-219982Y199259D01*
X-218649Y198703D01*
X-217982Y197592D01*
G54D12*
X-209538Y190370D02*
X-214871Y190370D01*
X-214871Y190925D01*
X-214205Y192036D01*
X-210205Y195370D01*
X-209538Y196481D01*
X-209538Y197592D01*
X-210205Y198703D01*
X-211538Y199259D01*
X-212871Y199259D01*
X-214205Y198703D01*
X-214871Y197592D01*
G54D12*
X-201094Y197592D02*
X-201761Y198703D01*
X-203094Y199259D01*
X-204427Y199259D01*
X-205761Y198703D01*
X-206427Y197592D01*
X-206427Y194814D01*
X-206427Y194259D01*
X-204427Y195370D01*
X-203094Y195370D01*
X-201761Y194814D01*
X-201094Y193703D01*
X-201094Y192036D01*
X-201761Y190925D01*
X-203094Y190370D01*
X-204427Y190370D01*
X-205761Y190925D01*
X-206427Y192036D01*
X-206427Y194814D01*
G54D12*
X-220935Y161698D02*
X-222046Y162364D01*
X-222602Y163698D01*
X-222602Y165031D01*
X-222046Y166364D01*
X-220935Y167031D01*
X-215380Y167031D01*
X-214269Y166364D01*
X-213713Y165031D01*
X-213713Y163698D01*
X-214269Y162364D01*
X-215380Y161698D01*
G54D12*
X-222602Y153254D02*
X-222602Y158587D01*
X-222046Y158587D01*
X-220935Y157920D01*
X-217602Y153920D01*
X-216491Y153254D01*
X-215380Y153254D01*
X-214269Y153920D01*
X-213713Y155254D01*
X-213713Y156587D01*
X-214269Y157920D01*
X-215380Y158587D01*
G54D12*
X-213713Y150143D02*
X-213713Y144810D01*
X-214824Y145476D01*
X-216491Y146810D01*
X-218713Y148143D01*
X-220380Y148810D01*
X-222602Y148810D01*
G54D12*
X-282451Y144235D02*
X-283562Y144902D01*
X-284118Y146235D01*
X-284118Y147569D01*
X-283562Y148902D01*
X-282451Y149569D01*
X-276895Y149569D01*
X-275784Y148902D01*
X-275229Y147569D01*
X-275229Y146235D01*
X-275784Y144902D01*
X-276895Y144235D01*
G54D12*
X-284118Y135791D02*
X-284118Y141125D01*
X-283562Y141125D01*
X-282451Y140458D01*
X-279118Y136458D01*
X-278006Y135791D01*
X-276895Y135791D01*
X-275784Y136458D01*
X-275229Y137791D01*
X-275229Y139125D01*
X-275784Y140458D01*
X-276895Y141125D01*
G54D12*
X-279673Y129347D02*
X-279673Y130681D01*
X-279118Y132014D01*
X-278006Y132681D01*
X-276895Y132681D01*
X-275784Y132014D01*
X-275229Y130681D01*
X-275229Y129347D01*
X-275784Y128014D01*
X-276895Y127347D01*
X-278006Y127347D01*
X-279118Y128014D01*
X-279673Y129347D01*
X-280229Y128014D01*
X-281340Y127347D01*
X-282451Y127347D01*
X-283562Y128014D01*
X-284118Y129347D01*
X-284118Y130681D01*
X-283562Y132014D01*
X-282451Y132681D01*
X-281340Y132681D01*
X-280229Y132014D01*
X-279673Y130681D01*
G54D12*
X-257448Y144235D02*
X-258559Y144902D01*
X-259114Y146235D01*
X-259114Y147569D01*
X-258559Y148902D01*
X-257448Y149569D01*
X-251892Y149569D01*
X-250781Y148902D01*
X-250226Y147569D01*
X-250226Y146235D01*
X-250781Y144902D01*
X-251892Y144235D01*
G54D12*
X-259114Y135791D02*
X-259114Y141125D01*
X-258559Y141125D01*
X-257448Y140458D01*
X-254114Y136458D01*
X-253003Y135791D01*
X-251892Y135791D01*
X-250781Y136458D01*
X-250226Y137791D01*
X-250226Y139125D01*
X-250781Y140458D01*
X-251892Y141125D01*
G54D12*
X-257448Y132681D02*
X-258559Y132014D01*
X-259114Y130681D01*
X-259114Y129347D01*
X-258559Y128014D01*
X-257448Y127347D01*
X-254670Y127347D01*
X-254114Y127347D01*
X-255226Y129347D01*
X-255226Y130681D01*
X-254670Y132014D01*
X-253559Y132681D01*
X-251892Y132681D01*
X-250781Y132014D01*
X-250226Y130681D01*
X-250226Y129347D01*
X-250781Y128014D01*
X-251892Y127347D01*
X-254670Y127347D01*
G54D12*
X-261417Y119914D02*
X-262528Y117914D01*
X-263639Y117248D01*
X-265861Y117248D01*
G54D12*
X-265861Y122581D02*
X-256972Y122581D01*
X-256972Y119248D01*
X-257528Y117914D01*
X-258639Y117248D01*
X-259750Y117248D01*
X-260861Y117914D01*
X-261417Y119248D01*
X-261417Y122581D01*
G54D12*
X-261417Y110804D02*
X-261417Y112137D01*
X-260861Y113470D01*
X-259750Y114137D01*
X-258639Y114137D01*
X-257528Y113470D01*
X-256972Y112137D01*
X-256972Y110804D01*
X-257528Y109470D01*
X-258639Y108804D01*
X-259750Y108804D01*
X-260861Y109470D01*
X-261417Y110804D01*
X-261972Y109470D01*
X-263084Y108804D01*
X-264195Y108804D01*
X-265306Y109470D01*
X-265861Y110804D01*
X-265861Y112137D01*
X-265306Y113470D01*
X-264195Y114137D01*
X-263084Y114137D01*
X-261972Y113470D01*
X-261417Y112137D01*
G54D12*
X-236811Y102055D02*
X-237922Y100055D01*
X-239033Y99388D01*
X-241255Y99388D01*
G54D12*
X-241255Y104722D02*
X-232366Y104722D01*
X-232366Y101388D01*
X-232922Y100055D01*
X-234033Y99388D01*
X-235144Y99388D01*
X-236255Y100055D01*
X-236811Y101388D01*
X-236811Y104722D01*
G54D12*
X-239588Y96278D02*
X-240700Y95611D01*
X-241255Y94278D01*
X-241255Y92944D01*
X-240700Y91611D01*
X-239588Y90944D01*
X-236811Y90944D01*
X-236255Y90944D01*
X-237366Y92944D01*
X-237366Y94278D01*
X-236811Y95611D01*
X-235700Y96278D01*
X-234033Y96278D01*
X-232922Y95611D01*
X-232366Y94278D01*
X-232366Y92944D01*
X-232922Y91611D01*
X-234033Y90944D01*
X-236811Y90944D01*
G54D12*
X-224111Y122692D02*
X-225222Y120692D01*
X-226333Y120026D01*
X-228555Y120026D01*
G54D12*
X-228555Y125359D02*
X-219666Y125359D01*
X-219666Y122026D01*
X-220222Y120692D01*
X-221333Y120026D01*
X-222444Y120026D01*
X-223555Y120692D01*
X-224111Y122026D01*
X-224111Y125359D01*
G54D12*
X-223000Y116915D02*
X-219666Y113582D01*
X-228555Y113582D01*
G54D12*
X-221333Y105138D02*
X-226888Y105138D01*
X-228000Y105805D01*
X-228555Y107138D01*
X-228555Y108471D01*
X-228000Y109805D01*
X-226888Y110471D01*
X-221333Y110471D01*
X-220222Y109805D01*
X-219666Y108471D01*
X-219666Y107138D01*
X-220222Y105805D01*
X-221333Y105138D01*
G54D12*
X-211808Y122693D02*
X-212919Y120693D01*
X-214030Y120026D01*
X-216252Y120026D01*
G54D12*
X-216252Y125359D02*
X-207363Y125359D01*
X-207363Y122026D01*
X-207919Y120693D01*
X-209030Y120026D01*
X-210141Y120026D01*
X-211252Y120693D01*
X-211808Y122026D01*
X-211808Y125359D01*
G54D12*
X-210696Y116915D02*
X-207363Y113582D01*
X-216252Y113582D01*
G54D12*
X-210696Y110471D02*
X-207363Y107138D01*
X-216252Y107138D01*
M02*
