%FSLAX34Y34*%
%MOMM*%
%LNSOLDERMASK_TOP*%
G71*
G01*
%ADD10R, 0.55X1.00*%
%ADD11R, 1.00X0.55*%
%ADD12R, 1.20X1.10*%
%ADD13R, 1.00X0.80*%
%ADD14C, 1.20*%
%ADD15C, 1.90*%
%ADD16R, 0.80X1.00*%
%ADD17R, 0.80X0.44*%
%ADD18R, 0.40X1.00*%
%ADD19R, 1.78X3.05*%
%ADD20C, 1.00*%
%ADD21R, 0.44X0.80*%
%ADD22R, 0.80X0.40*%
%ADD23R, 3.95X0.95*%
%ADD24R, 1.30X0.95*%
%ADD25R, 2.10X1.70*%
%ADD26R, 3.00X2.15*%
%ADD27R, 2.00X1.60*%
%ADD28C, 1.90*%
%LPD*%
X-261360Y158839D02*
G54D10*
D03*
X-261360Y198839D02*
G54D10*
D03*
X-256360Y158839D02*
G54D10*
D03*
X-256360Y198839D02*
G54D10*
D03*
X-251360Y158839D02*
G54D10*
D03*
X-251360Y198839D02*
G54D10*
D03*
X-246360Y158839D02*
G54D10*
D03*
X-246360Y198839D02*
G54D10*
D03*
X-241360Y158839D02*
G54D10*
D03*
X-241360Y198839D02*
G54D10*
D03*
X-236360Y158839D02*
G54D10*
D03*
X-236360Y198839D02*
G54D10*
D03*
X-268860Y166339D02*
G54D11*
D03*
X-228860Y166339D02*
G54D11*
D03*
X-268860Y171339D02*
G54D11*
D03*
X-228860Y171339D02*
G54D11*
D03*
X-268860Y176339D02*
G54D11*
D03*
X-228860Y176339D02*
G54D11*
D03*
X-268860Y181339D02*
G54D11*
D03*
X-228860Y181339D02*
G54D11*
D03*
X-268860Y186339D02*
G54D11*
D03*
X-228860Y186339D02*
G54D11*
D03*
X-268860Y191339D02*
G54D11*
D03*
X-228860Y191339D02*
G54D11*
D03*
X-196862Y143837D02*
G54D12*
D03*
X-16862Y143837D02*
G54D12*
D03*
X-196862Y128837D02*
G54D12*
D03*
X-16862Y128837D02*
G54D12*
D03*
X-196862Y113837D02*
G54D12*
D03*
X-16862Y113837D02*
G54D12*
D03*
X-196862Y98837D02*
G54D12*
D03*
X-16862Y98837D02*
G54D12*
D03*
X-196862Y83837D02*
G54D12*
D03*
X-16862Y83837D02*
G54D12*
D03*
X-196862Y68837D02*
G54D12*
D03*
X-16862Y68837D02*
G54D12*
D03*
X-196862Y53837D02*
G54D12*
D03*
X-16862Y53837D02*
G54D12*
D03*
X-196862Y38837D02*
G54D12*
D03*
X-16862Y38837D02*
G54D12*
D03*
X-196862Y23837D02*
G54D12*
D03*
X-16862Y23837D02*
G54D12*
D03*
X-211862Y143837D02*
G54D13*
D03*
X-211862Y129837D02*
G54D13*
D03*
X-204862Y171337D02*
G54D13*
D03*
X-204862Y157337D02*
G54D13*
D03*
X-204862Y181337D02*
G54D14*
D03*
X-34362Y98837D02*
G54D14*
D03*
X-224362Y143837D02*
G54D13*
D03*
X-224362Y129837D02*
G54D13*
D03*
X-236862Y122837D02*
G54D13*
D03*
X-236862Y108837D02*
G54D13*
D03*
X-249362Y122837D02*
G54D13*
D03*
X-249362Y108837D02*
G54D13*
D03*
X-271862Y28837D02*
G54D15*
D03*
X-271862Y48837D02*
G54D15*
D03*
X-271862Y68837D02*
G54D15*
D03*
X-271862Y88837D02*
G54D15*
D03*
X-217362Y168837D02*
G54D13*
D03*
X-217362Y182837D02*
G54D13*
D03*
X-204862Y195337D02*
G54D14*
D03*
X-268862Y205837D02*
G54D14*
D03*
X-224362Y121337D02*
G54D14*
D03*
X-224362Y205837D02*
G54D16*
D03*
X-210362Y205837D02*
G54D16*
D03*
X-243362Y132837D02*
G54D13*
D03*
X-243362Y146837D02*
G54D13*
D03*
X-268362Y132837D02*
G54D13*
D03*
X-268362Y146837D02*
G54D13*
D03*
X-255862Y132837D02*
G54D14*
D03*
X-34362Y143837D02*
G54D14*
D03*
X-34362Y68837D02*
G54D14*
D03*
X-181862Y23837D02*
G54D14*
D03*
X-251862Y28837D02*
G54D15*
D03*
X-251862Y48837D02*
G54D15*
D03*
X-251862Y68837D02*
G54D15*
D03*
X-251862Y88837D02*
G54D15*
D03*
X-26862Y113837D02*
G54D14*
D03*
X-181862Y143837D02*
G54D14*
D03*
X-181862Y113837D02*
G54D14*
D03*
X-181862Y83837D02*
G54D14*
D03*
X-216862Y103837D02*
G54D14*
D03*
X-209362Y91337D02*
G54D14*
D03*
X-208362Y61337D02*
G54D14*
D03*
X-181862Y38837D02*
G54D14*
D03*
X-169862Y23837D02*
G54D14*
D03*
X-159862Y86337D02*
G54D14*
D03*
X-159862Y111337D02*
G54D14*
D03*
X-271862Y-198663D02*
G54D15*
D03*
X-271862Y-178663D02*
G54D15*
D03*
X-271862Y-158663D02*
G54D15*
D03*
X-271862Y-138663D02*
G54D15*
D03*
X-251862Y-198663D02*
G54D15*
D03*
X-251862Y-178663D02*
G54D15*
D03*
X-251862Y-158663D02*
G54D15*
D03*
X-251862Y-138663D02*
G54D15*
D03*
X-58862Y-142663D02*
G54D17*
D03*
X-30862Y-142663D02*
G54D17*
D03*
X-58862Y-147663D02*
G54D17*
D03*
X-30862Y-147663D02*
G54D17*
D03*
X-58862Y-152663D02*
G54D17*
D03*
X-30862Y-152663D02*
G54D17*
D03*
X-58862Y-157663D02*
G54D17*
D03*
X-30862Y-157663D02*
G54D17*
D03*
X-58862Y-162663D02*
G54D17*
D03*
X-30862Y-162663D02*
G54D17*
D03*
X-58862Y-167663D02*
G54D17*
D03*
X-30862Y-167663D02*
G54D17*
D03*
X-58862Y-172663D02*
G54D17*
D03*
X-30862Y-172663D02*
G54D17*
D03*
X-37958Y-139663D02*
G54D18*
D03*
X-37958Y-175663D02*
G54D18*
D03*
X-42558Y-139663D02*
G54D18*
D03*
X-42558Y-175663D02*
G54D18*
D03*
X-47158Y-139663D02*
G54D18*
D03*
X-47158Y-175663D02*
G54D18*
D03*
X-51758Y-139663D02*
G54D18*
D03*
X-51758Y-175663D02*
G54D18*
D03*
X-44862Y-157663D02*
G54D19*
D03*
X-44862Y-157663D02*
G54D20*
D03*
X-39862Y-157663D02*
G54D20*
D03*
X-49862Y-157663D02*
G54D20*
D03*
X-44862Y-152663D02*
G54D20*
D03*
X-39862Y-152663D02*
G54D20*
D03*
X-49862Y-152663D02*
G54D20*
D03*
X-44862Y-147663D02*
G54D20*
D03*
X-39862Y-147663D02*
G54D20*
D03*
X-49862Y-147663D02*
G54D20*
D03*
X-44862Y-162663D02*
G54D20*
D03*
X-39862Y-162663D02*
G54D20*
D03*
X-49862Y-162663D02*
G54D20*
D03*
X-44862Y-167663D02*
G54D20*
D03*
X-39862Y-167663D02*
G54D20*
D03*
X-49862Y-167663D02*
G54D20*
D03*
X-74862Y-49164D02*
G54D21*
D03*
X-74862Y-82164D02*
G54D21*
D03*
X-79862Y-49164D02*
G54D21*
D03*
X-79862Y-82164D02*
G54D21*
D03*
X-84862Y-49164D02*
G54D21*
D03*
X-84862Y-82164D02*
G54D21*
D03*
X-89862Y-49164D02*
G54D21*
D03*
X-89862Y-82164D02*
G54D21*
D03*
X-94862Y-49164D02*
G54D21*
D03*
X-94862Y-82164D02*
G54D21*
D03*
X-99862Y-49164D02*
G54D21*
D03*
X-99862Y-82164D02*
G54D21*
D03*
X-104862Y-49164D02*
G54D21*
D03*
X-104862Y-82164D02*
G54D21*
D03*
X-109862Y-49164D02*
G54D21*
D03*
X-109862Y-82164D02*
G54D21*
D03*
X-70863Y-73919D02*
G54D22*
D03*
X-113863Y-73919D02*
G54D22*
D03*
X-70863Y-68419D02*
G54D22*
D03*
X-113863Y-68419D02*
G54D22*
D03*
X-70863Y-62919D02*
G54D22*
D03*
X-113863Y-62919D02*
G54D22*
D03*
X-70863Y-57419D02*
G54D22*
D03*
X-113863Y-57419D02*
G54D22*
D03*
X-92362Y-65664D02*
G54D23*
D03*
X-92362Y-65664D02*
G54D20*
D03*
X-92362Y-71664D02*
G54D20*
D03*
X-92362Y-59664D02*
G54D20*
D03*
X-103862Y-65664D02*
G54D20*
D03*
X-103862Y-71664D02*
G54D20*
D03*
X-103862Y-59664D02*
G54D20*
D03*
X-80862Y-65664D02*
G54D20*
D03*
X-80862Y-71664D02*
G54D20*
D03*
X-80862Y-59664D02*
G54D20*
D03*
X-178362Y-116163D02*
G54D24*
D03*
X-235362Y-116163D02*
G54D24*
D03*
X-178362Y-103463D02*
G54D24*
D03*
X-235362Y-103463D02*
G54D24*
D03*
X-178362Y-90763D02*
G54D24*
D03*
X-235362Y-90763D02*
G54D24*
D03*
X-178362Y-78063D02*
G54D24*
D03*
X-235362Y-78063D02*
G54D24*
D03*
X-178362Y-65363D02*
G54D24*
D03*
X-235362Y-65363D02*
G54D24*
D03*
X-178362Y-52663D02*
G54D24*
D03*
X-235362Y-52663D02*
G54D24*
D03*
X-178362Y-39963D02*
G54D24*
D03*
X-235362Y-39963D02*
G54D24*
D03*
X-178362Y-27263D02*
G54D24*
D03*
X-235362Y-27263D02*
G54D24*
D03*
X-114862Y-188163D02*
G54D25*
D03*
X-73862Y-188163D02*
G54D25*
D03*
X-36862Y-57163D02*
G54D13*
D03*
X-36862Y-71163D02*
G54D13*
D03*
X-92362Y-65664D02*
G54D26*
D03*
X-21862Y-63663D02*
G54D15*
D03*
X-21862Y-83663D02*
G54D15*
D03*
X-49362Y-57163D02*
G54D13*
D03*
X-49362Y-71163D02*
G54D13*
D03*
X-14862Y-21663D02*
G54D16*
D03*
X-28862Y-21663D02*
G54D16*
D03*
X-14862Y-34163D02*
G54D16*
D03*
X-28862Y-34163D02*
G54D16*
D03*
X-14862Y-46663D02*
G54D16*
D03*
X-28862Y-46663D02*
G54D16*
D03*
X-37362Y-21663D02*
G54D16*
D03*
X-51362Y-21663D02*
G54D16*
D03*
X-37362Y-34163D02*
G54D16*
D03*
X-51362Y-34163D02*
G54D16*
D03*
X-37362Y-46663D02*
G54D16*
D03*
X-51362Y-46663D02*
G54D16*
D03*
X-37362Y-81663D02*
G54D16*
D03*
X-51362Y-81663D02*
G54D16*
D03*
X-37362Y-94163D02*
G54D16*
D03*
X-51362Y-94163D02*
G54D16*
D03*
X-37362Y-106663D02*
G54D16*
D03*
X-51362Y-106663D02*
G54D16*
D03*
X-82362Y-38164D02*
G54D14*
D03*
X-21862Y-103663D02*
G54D15*
D03*
X-21862Y-123663D02*
G54D15*
D03*
X-78362Y-90164D02*
G54D14*
D03*
X-101362Y-94663D02*
G54D16*
D03*
X-115362Y-94663D02*
G54D16*
D03*
X-101362Y-107163D02*
G54D16*
D03*
X-115362Y-107163D02*
G54D16*
D03*
X-124362Y-82663D02*
G54D13*
D03*
X-124362Y-68663D02*
G54D13*
D03*
X-119362Y-48663D02*
G54D16*
D03*
X-133362Y-48663D02*
G54D16*
D03*
X-133862Y-63663D02*
G54D14*
D03*
X-121862Y-106663D02*
G54D14*
D03*
X-130362Y-107663D02*
G54D13*
D03*
X-130362Y-93663D02*
G54D13*
D03*
X-130362Y-114164D02*
G54D14*
D03*
X-93362Y-121163D02*
G54D16*
D03*
X-107362Y-121163D02*
G54D16*
D03*
X-116362Y-121163D02*
G54D16*
D03*
X-130362Y-121163D02*
G54D16*
D03*
X-93362Y-114164D02*
G54D14*
D03*
X-112862Y-34163D02*
G54D13*
D03*
X-112862Y-20163D02*
G54D13*
D03*
X-142362Y-75663D02*
G54D13*
D03*
X-142362Y-61663D02*
G54D13*
D03*
X-60362Y-114164D02*
G54D14*
D03*
X-24362Y-160164D02*
G54D14*
D03*
X-17362Y-180162D02*
G54D13*
D03*
X-17362Y-166162D02*
G54D13*
D03*
X-17362Y-187164D02*
G54D14*
D03*
X-17362Y-151162D02*
G54D13*
D03*
X-17362Y-137162D02*
G54D13*
D03*
X-24862Y-147663D02*
G54D14*
D03*
X-56862Y-130663D02*
G54D14*
D03*
X-70362Y-159162D02*
G54D13*
D03*
X-70362Y-145162D02*
G54D13*
D03*
X-82362Y-159162D02*
G54D13*
D03*
X-82362Y-145162D02*
G54D13*
D03*
X-94362Y-159162D02*
G54D13*
D03*
X-94362Y-145162D02*
G54D13*
D03*
X-69862Y-138663D02*
G54D14*
D03*
X-120362Y-21663D02*
G54D14*
D03*
X-104862Y-159663D02*
G54D14*
D03*
X-123862Y-32663D02*
G54D14*
D03*
X-129362Y-145162D02*
G54D16*
D03*
X-115362Y-145162D02*
G54D16*
D03*
X-115362Y-133164D02*
G54D16*
D03*
X-101362Y-133164D02*
G54D16*
D03*
X-181862Y-184663D02*
G54D27*
D03*
X-181862Y-158663D02*
G54D27*
D03*
X-207862Y-184663D02*
G54D27*
D03*
X-207862Y-158663D02*
G54D27*
D03*
X-194862Y-184663D02*
G54D14*
D03*
X-219862Y-158663D02*
G54D14*
D03*
X-169862Y-158663D02*
G54D14*
D03*
X-123862Y-130663D02*
G54D14*
D03*
X-152862Y-150663D02*
G54D14*
D03*
X-271862Y-88663D02*
G54D15*
D03*
X-271862Y-68663D02*
G54D15*
D03*
X-271862Y-48663D02*
G54D15*
D03*
X-271862Y-28663D02*
G54D15*
D03*
X-189862Y-116663D02*
G54D14*
D03*
X-259362Y-45162D02*
G54D13*
D03*
X-259362Y-31162D02*
G54D13*
D03*
X-257362Y-93162D02*
G54D13*
D03*
X-257362Y-79162D02*
G54D13*
D03*
X-219862Y-90663D02*
G54D14*
D03*
X-219862Y-84663D02*
G54D14*
D03*
X-219862Y-96663D02*
G54D14*
D03*
X-153862Y-171663D02*
G54D14*
D03*
X-164862Y-103663D02*
G54D14*
D03*
X-164862Y-91663D02*
G54D14*
D03*
X-230862Y-145663D02*
G54D14*
D03*
X-190362Y-128163D02*
G54D16*
D03*
X-204362Y-128163D02*
G54D16*
D03*
X-255862Y185337D02*
G54D14*
D03*
X-210862Y38837D02*
G54D28*
D03*
X-210862Y23837D02*
G54D28*
D03*
X-51362Y-119664D02*
G54D16*
D03*
X-37362Y-119664D02*
G54D16*
D03*
X-58862Y-38664D02*
G54D14*
D03*
X-62362Y-35663D02*
G54D16*
D03*
X-76362Y-35663D02*
G54D16*
D03*
X-101862Y-34163D02*
G54D13*
D03*
X-101862Y-20163D02*
G54D13*
D03*
X-92862Y-21663D02*
G54D14*
D03*
X-99862Y-36663D02*
G54D14*
D03*
X-100362Y-98663D02*
G54D14*
D03*
X-116237Y-82391D02*
G54D14*
D03*
M02*
