%FSLAX34Y34*%
%MOMM*%
%LNCOPPER_BOTTOM*%
G71*
G01*
%ADD10C, 0.60*%
%ADD11C, 0.30*%
%ADD12C, 1.30*%
%ADD13C, 0.40*%
%ADD14C, 0.50*%
%ADD15C, 0.24*%
%LPD*%
X-204862Y181337D02*
G54D10*
D03*
X-34362Y98837D02*
G54D10*
D03*
G54D11*
X-204862Y181337D02*
X-204862Y151837D01*
X-196862Y143837D01*
X-196862Y105837D01*
X-189362Y98837D01*
X-34362Y98837D01*
X-271862Y28837D02*
G54D12*
D03*
X-271862Y48837D02*
G54D12*
D03*
X-271862Y68837D02*
G54D12*
D03*
X-271862Y88837D02*
G54D12*
D03*
X-204862Y195337D02*
G54D10*
D03*
X-268862Y205837D02*
G54D10*
D03*
X-224362Y121337D02*
G54D10*
D03*
G54D11*
X-224362Y121337D02*
X-263362Y121337D01*
X-268862Y126837D01*
X-268862Y205837D01*
X-255862Y132837D02*
G54D10*
D03*
X-34362Y143837D02*
G54D10*
D03*
X-34362Y68837D02*
G54D10*
D03*
X-181862Y23837D02*
G54D10*
D03*
X-251862Y28837D02*
G54D12*
D03*
X-251862Y48837D02*
G54D12*
D03*
X-251862Y68837D02*
G54D12*
D03*
X-251862Y88837D02*
G54D12*
D03*
G54D11*
X-251862Y68837D02*
X-46862Y68837D01*
X-26862Y88837D01*
X-26862Y113837D01*
X-26862Y113837D02*
G54D10*
D03*
X-181862Y143837D02*
G54D10*
D03*
G54D11*
X-181862Y143837D02*
X-181862Y113837D01*
X-181862Y113837D02*
G54D10*
D03*
X-181862Y83837D02*
G54D10*
D03*
G54D11*
X-181862Y83837D02*
X-240862Y83837D01*
X-245862Y78837D01*
X-261862Y78837D01*
X-271862Y68837D01*
X-216862Y103837D02*
G54D10*
D03*
X-209362Y91337D02*
G54D10*
D03*
X-208362Y61337D02*
G54D10*
D03*
G54D11*
X-208362Y61337D02*
X-242362Y61337D01*
X-244862Y58837D01*
X-261862Y58837D01*
X-271862Y48837D01*
G54D11*
X-209362Y91337D02*
X-249362Y91337D01*
X-251862Y88837D01*
G54D11*
X-216862Y103837D02*
X-256862Y103837D01*
X-271862Y88837D01*
X-181862Y38837D02*
G54D10*
D03*
X-169862Y23837D02*
G54D10*
D03*
G54D11*
X-169862Y23837D02*
X-176862Y30837D01*
X-230862Y30837D01*
X-242862Y18837D01*
X-261862Y18837D01*
X-271862Y28837D01*
G54D11*
X-181862Y38837D02*
X-241862Y38837D01*
X-251862Y48837D01*
G36*
X-261862Y131337D02*
X-259362Y128837D01*
X-219362Y128837D01*
X-214362Y123837D01*
X-214362Y118837D01*
X-216862Y116337D01*
X-216862Y111337D01*
X-211862Y111337D01*
X-209362Y108837D01*
X-209362Y101337D01*
X-199362Y91337D01*
X-194362Y91337D01*
X-191862Y93837D01*
X-201862Y103837D01*
X-201862Y141337D01*
X-211862Y151337D01*
X-211862Y186337D01*
X-209362Y188837D01*
X-201862Y188837D01*
X-201862Y208837D01*
X-259362Y208837D01*
X-259362Y203837D01*
X-261862Y201337D01*
X-261862Y131337D01*
G37*
G54D11*
X-261862Y131337D02*
X-259362Y128837D01*
X-219362Y128837D01*
X-214362Y123837D01*
X-214362Y118837D01*
X-216862Y116337D01*
X-216862Y111337D01*
X-211862Y111337D01*
X-209362Y108837D01*
X-209362Y101337D01*
X-199362Y91337D01*
X-194362Y91337D01*
X-191862Y93837D01*
X-201862Y103837D01*
X-201862Y141337D01*
X-211862Y151337D01*
X-211862Y186337D01*
X-209362Y188837D01*
X-201862Y188837D01*
X-201862Y208837D01*
X-259362Y208837D01*
X-259362Y203837D01*
X-261862Y201337D01*
X-261862Y131337D01*
G36*
X-26862Y148837D02*
X-174362Y148837D01*
X-174362Y103837D01*
X-39362Y103837D01*
X-36862Y106337D01*
X-34362Y106337D01*
X-34362Y116337D01*
X-26862Y123837D01*
X-26862Y148837D01*
G37*
G54D11*
X-26862Y148837D02*
X-174362Y148837D01*
X-174362Y103837D01*
X-39362Y103837D01*
X-36862Y106337D01*
X-34362Y106337D01*
X-34362Y116337D01*
X-26862Y123837D01*
X-26862Y148837D01*
G36*
X-174362Y93837D02*
X-174362Y73837D01*
X-49362Y73837D01*
X-39362Y83837D01*
X-39362Y93837D01*
X-174362Y93837D01*
G37*
G54D11*
X-174362Y93837D02*
X-174362Y73837D01*
X-49362Y73837D01*
X-39362Y83837D01*
X-39362Y93837D01*
X-174362Y93837D01*
G36*
X-26862Y81337D02*
X-44362Y63837D01*
X-199362Y63837D01*
X-199362Y58837D01*
X-204362Y53837D01*
X-236862Y53837D01*
X-239362Y51337D01*
X-239362Y46337D01*
X-176862Y46337D01*
X-171862Y41337D01*
X-171862Y36337D01*
X-169362Y36337D01*
X-161862Y28837D01*
X-161862Y18837D01*
X-26862Y18837D01*
X-26862Y81337D01*
G37*
G54D11*
X-26862Y81337D02*
X-44362Y63837D01*
X-199362Y63837D01*
X-199362Y58837D01*
X-204362Y53837D01*
X-236862Y53837D01*
X-239362Y51337D01*
X-239362Y46337D01*
X-176862Y46337D01*
X-171862Y41337D01*
X-171862Y36337D01*
X-169362Y36337D01*
X-161862Y28837D01*
X-161862Y18837D01*
X-26862Y18837D01*
X-26862Y81337D01*
G36*
X-194362Y93837D02*
X-174362Y93837D01*
X-174362Y88837D01*
X-176862Y91337D01*
X-199362Y91337D01*
X-196862Y91337D01*
X-194362Y93837D01*
G37*
G54D11*
X-194362Y93837D02*
X-174362Y93837D01*
X-174362Y88837D01*
X-176862Y91337D01*
X-199362Y91337D01*
X-196862Y91337D01*
X-194362Y93837D01*
X-159862Y86337D02*
G54D10*
D03*
X-159862Y111337D02*
G54D10*
D03*
X-271862Y-198663D02*
G54D12*
D03*
X-271862Y-178663D02*
G54D12*
D03*
X-271862Y-158663D02*
G54D12*
D03*
X-271862Y-138663D02*
G54D12*
D03*
X-251862Y-198663D02*
G54D12*
D03*
X-251862Y-178663D02*
G54D12*
D03*
X-251862Y-158663D02*
G54D12*
D03*
X-251862Y-138663D02*
G54D12*
D03*
X-44862Y-157663D02*
G54D13*
D03*
X-39862Y-157663D02*
G54D13*
D03*
X-49862Y-157663D02*
G54D13*
D03*
X-44862Y-152663D02*
G54D13*
D03*
X-39862Y-152663D02*
G54D13*
D03*
X-49862Y-152663D02*
G54D13*
D03*
X-44862Y-147663D02*
G54D13*
D03*
X-39862Y-147663D02*
G54D13*
D03*
X-49862Y-147663D02*
G54D13*
D03*
X-44862Y-162663D02*
G54D13*
D03*
X-39862Y-162663D02*
G54D13*
D03*
X-49862Y-162663D02*
G54D13*
D03*
X-44862Y-167663D02*
G54D13*
D03*
X-39862Y-167663D02*
G54D13*
D03*
X-49862Y-167663D02*
G54D13*
D03*
X-92362Y-65664D02*
G54D13*
D03*
X-92362Y-71664D02*
G54D13*
D03*
X-92362Y-59664D02*
G54D13*
D03*
X-103862Y-65664D02*
G54D13*
D03*
X-103862Y-71664D02*
G54D13*
D03*
X-103862Y-59664D02*
G54D13*
D03*
X-80862Y-65664D02*
G54D13*
D03*
X-80862Y-71664D02*
G54D13*
D03*
X-80862Y-59664D02*
G54D13*
D03*
X-21862Y-63663D02*
G54D12*
D03*
X-21862Y-83663D02*
G54D12*
D03*
X-82362Y-38164D02*
G54D10*
D03*
X-21862Y-103663D02*
G54D12*
D03*
X-21862Y-123663D02*
G54D12*
D03*
G54D14*
X-82362Y-38164D02*
X-81862Y-35663D01*
X-65862Y-19663D01*
X-43862Y-19663D01*
X-35862Y-27663D01*
X-35862Y-103663D01*
X-21862Y-103663D01*
X-78362Y-90164D02*
G54D10*
D03*
X-133862Y-63663D02*
G54D10*
D03*
G54D15*
X-133862Y-63663D02*
X-133862Y-61663D01*
X-100862Y-28663D01*
X-91861Y-28663D01*
X-82362Y-38164D01*
X-121862Y-106663D02*
G54D10*
D03*
X-130362Y-114164D02*
G54D10*
D03*
G54D15*
X-130362Y-114164D02*
X-93362Y-114164D01*
X-92862Y-112663D01*
X-78862Y-98663D01*
X-78862Y-92663D01*
X-78362Y-90164D01*
X-93362Y-114164D02*
G54D10*
D03*
X-60362Y-114164D02*
G54D10*
D03*
G54D14*
X-60362Y-114164D02*
X-60362Y-92164D01*
X-80862Y-71664D01*
X-24362Y-160164D02*
G54D10*
D03*
G54D14*
X-24362Y-160164D02*
X-14862Y-152663D01*
X-14862Y-138663D01*
X-26862Y-138663D01*
X-35862Y-129663D01*
X-35862Y-103663D01*
X-21862Y-103663D01*
X-17362Y-187164D02*
G54D10*
D03*
G54D14*
X-17362Y-187164D02*
X-44360Y-187164D01*
X-44862Y-186663D01*
X-44862Y-157663D01*
X-24862Y-147663D02*
G54D10*
D03*
G54D15*
X-24862Y-147663D02*
X-26862Y-147663D01*
X-35862Y-138663D01*
X-54862Y-138663D01*
X-54862Y-133663D01*
X-56862Y-130663D01*
X-56862Y-130663D02*
G54D10*
D03*
X-69862Y-138663D02*
G54D10*
D03*
G54D14*
X-69862Y-138663D02*
X-69862Y-146663D01*
X-58862Y-157663D01*
X-44862Y-157663D01*
G54D14*
X-44862Y-157663D02*
X-44862Y-192663D01*
X-50862Y-198663D01*
X-251862Y-198663D01*
X-120362Y-21663D02*
G54D10*
D03*
G54D15*
X-120362Y-21663D02*
X-114862Y-27163D01*
X-114862Y-33663D01*
X-140862Y-59663D01*
X-140862Y-76663D01*
X-137862Y-79663D01*
X-137862Y-119663D01*
X-132862Y-124663D01*
X-132862Y-131663D01*
X-104862Y-159663D01*
X-104862Y-159663D02*
G54D10*
D03*
X-123862Y-32663D02*
G54D10*
D03*
G54D15*
X-123862Y-32663D02*
X-124862Y-34663D01*
X-145862Y-55663D01*
X-145862Y-168663D01*
X-148862Y-171663D01*
X-153862Y-171663D01*
X-194862Y-184663D02*
G54D10*
D03*
G54D14*
X-194862Y-184663D02*
X-194862Y-198663D01*
X-219862Y-158663D02*
G54D10*
D03*
X-169862Y-158663D02*
G54D10*
D03*
G54D11*
X-21862Y-103663D02*
X-35862Y-103663D01*
X-35862Y-118163D01*
X-37362Y-119663D01*
X-51862Y-119663D01*
X-54862Y-122663D01*
X-115862Y-122663D01*
X-123862Y-130663D01*
X-123862Y-130663D02*
G54D10*
D03*
X-152862Y-150663D02*
G54D10*
D03*
G54D11*
X-169862Y-158663D02*
X-160862Y-158663D01*
X-152862Y-150663D01*
X-271862Y-88663D02*
G54D12*
D03*
X-271862Y-68663D02*
G54D12*
D03*
X-271862Y-48663D02*
G54D12*
D03*
X-271862Y-28663D02*
G54D12*
D03*
X-189862Y-116663D02*
G54D10*
D03*
G54D11*
X-219862Y-158663D02*
X-219862Y-146663D01*
X-189862Y-116663D01*
X-219862Y-90663D02*
G54D10*
D03*
X-219862Y-84663D02*
G54D10*
D03*
X-219862Y-96663D02*
G54D10*
D03*
G36*
X-99862Y-36663D02*
X-125862Y-62663D01*
X-125862Y-66663D01*
X-130862Y-71663D01*
X-130862Y-102663D01*
X-124862Y-108663D01*
X-97862Y-108663D01*
X-90487Y-101203D01*
X-96043Y-105172D01*
X-101362Y-107163D01*
X-105284Y-103644D01*
X-121184Y-87344D01*
X-123031Y-85725D01*
X-124362Y-82663D01*
X-123428Y-80963D01*
X-122634Y-78582D01*
X-120650Y-76597D01*
X-118268Y-75406D01*
X-115490Y-75010D01*
X-112712Y-75803D01*
X-95384Y-93744D01*
X-92868Y-96441D01*
X-90487Y-101203D01*
X-85338Y-96064D01*
X-85334Y-90194D01*
X-85068Y-84663D01*
X-81671Y-82060D01*
X-74862Y-82164D01*
X-71656Y-85060D01*
X-71334Y-90194D01*
X-71328Y-100113D01*
X-84862Y-113663D01*
X-84862Y-117663D01*
X-56862Y-117663D01*
X-52862Y-113663D01*
X-42862Y-113663D01*
X-42862Y-30663D01*
X-46862Y-26663D01*
X-59862Y-26663D01*
X-78862Y-45663D01*
X-84862Y-45663D01*
X-92862Y-36663D01*
X-99862Y-36663D01*
G37*
G54D11*
X-99862Y-36663D02*
X-125862Y-62663D01*
X-125862Y-66663D01*
X-130862Y-71663D01*
X-130862Y-102663D01*
X-124862Y-108663D01*
X-97862Y-108663D01*
X-90487Y-101203D01*
X-96043Y-105172D01*
X-101362Y-107163D01*
X-105284Y-103644D01*
X-121184Y-87344D01*
X-123031Y-85725D01*
X-124362Y-82663D01*
X-123428Y-80963D01*
X-122634Y-78582D01*
X-120650Y-76597D01*
X-118268Y-75406D01*
X-115490Y-75010D01*
X-112712Y-75803D01*
X-95384Y-93744D01*
X-92868Y-96441D01*
X-90487Y-101203D01*
X-85338Y-96064D01*
X-85334Y-90194D01*
X-85068Y-84663D01*
X-81671Y-82060D01*
X-74862Y-82164D01*
X-71656Y-85060D01*
X-71334Y-90194D01*
X-71328Y-100113D01*
X-84862Y-113663D01*
X-84862Y-117663D01*
X-56862Y-117663D01*
X-52862Y-113663D01*
X-42862Y-113663D01*
X-42862Y-30663D01*
X-46862Y-26663D01*
X-59862Y-26663D01*
X-78862Y-45663D01*
X-84862Y-45663D01*
X-92862Y-36663D01*
X-99862Y-36663D01*
G36*
X-58862Y-143663D02*
X-39862Y-143663D01*
X-31862Y-151663D01*
X-31862Y-164663D01*
X-25862Y-170663D01*
X-11862Y-170663D01*
X-11862Y-208663D01*
X-241862Y-208663D01*
X-251862Y-198663D01*
X-251862Y-193663D01*
X-246862Y-193663D01*
X-232862Y-179663D01*
X-174862Y-179663D01*
X-162862Y-191663D01*
X-135862Y-191663D01*
X-111862Y-167663D01*
X-99862Y-167663D01*
X-95862Y-163663D01*
X-95862Y-131663D01*
X-91862Y-127663D01*
X-69862Y-127663D01*
X-59862Y-137663D01*
X-59862Y-142663D01*
X-58862Y-143663D01*
G37*
G54D11*
X-58862Y-143663D02*
X-39862Y-143663D01*
X-31862Y-151663D01*
X-31862Y-164663D01*
X-25862Y-170663D01*
X-11862Y-170663D01*
X-11862Y-208663D01*
X-241862Y-208663D01*
X-251862Y-198663D01*
X-251862Y-193663D01*
X-246862Y-193663D01*
X-232862Y-179663D01*
X-174862Y-179663D01*
X-162862Y-191663D01*
X-135862Y-191663D01*
X-111862Y-167663D01*
X-99862Y-167663D01*
X-95862Y-163663D01*
X-95862Y-131663D01*
X-91862Y-127663D01*
X-69862Y-127663D01*
X-59862Y-137663D01*
X-59862Y-142663D01*
X-58862Y-143663D01*
X-153862Y-171663D02*
G54D10*
D03*
G54D14*
X-219862Y-84663D02*
X-219862Y-96663D01*
X-219862Y-134663D01*
X-230862Y-145663D01*
X-230862Y-177663D01*
X-251862Y-198663D01*
X-164862Y-103663D02*
G54D10*
D03*
X-164862Y-91663D02*
G54D10*
D03*
G54D11*
X-164862Y-103663D02*
X-206862Y-103663D01*
X-210862Y-99663D01*
X-210862Y-80663D01*
X-214862Y-76663D01*
X-224862Y-76663D01*
X-228862Y-80663D01*
X-228862Y-98663D01*
X-261862Y-131663D01*
X-261862Y-188663D01*
X-271862Y-198663D01*
G54D11*
X-164862Y-91663D02*
X-190862Y-91663D01*
X-211862Y-70663D01*
X-227862Y-70663D01*
X-281862Y-124663D01*
X-281862Y-168663D01*
X-271862Y-178663D01*
X-230862Y-145663D02*
G54D10*
D03*
X-255862Y185337D02*
G54D10*
D03*
X-58862Y-38664D02*
G54D10*
D03*
X-92862Y-21663D02*
G54D10*
D03*
G54D15*
X-92862Y-21663D02*
X-91862Y-22663D01*
X-91861Y-28663D01*
X-99862Y-36663D02*
G54D10*
D03*
X-100362Y-98663D02*
G54D10*
D03*
X-116237Y-82391D02*
G54D10*
D03*
G54D15*
X-116237Y-82391D02*
X-100362Y-98663D01*
G54D11*
G75*
G01X-105284Y-103644D02*
G03X-95384Y-93744I4950J4950D01*
G01*
G54D11*
G75*
G01X-111284Y-77444D02*
G03X-121184Y-87344I-4950J-4950D01*
G01*
G54D11*
G75*
G01X-71334Y-90194D02*
G03X-85334Y-90194I-7000J0D01*
G01*
M02*
