%FSLAX34Y34*%
%MOMM*%
%LNSILK_BOTTOM*%
G71*
G01*
%ADD10C, 0.13*%
%LPD*%
G54D10*
X-183062Y-198330D02*
X-186262Y-198330D01*
X-186262Y-201663D01*
X-185462Y-202996D01*
X-183862Y-203663D01*
X-182262Y-203663D01*
X-180662Y-202996D01*
X-179862Y-201663D01*
X-179862Y-194996D01*
X-180662Y-193663D01*
X-182262Y-192996D01*
X-183862Y-192996D01*
X-185462Y-193663D01*
X-186262Y-194996D01*
G54D10*
X-189195Y-203663D02*
X-189195Y-192996D01*
X-195595Y-203663D01*
X-195595Y-192996D01*
G54D10*
X-198528Y-203663D02*
X-198528Y-192996D01*
X-202528Y-192996D01*
X-204128Y-193663D01*
X-204928Y-194996D01*
X-204928Y-201663D01*
X-204128Y-202996D01*
X-202528Y-203663D01*
X-198528Y-203663D01*
G54D10*
X-186262Y-181663D02*
X-185462Y-182996D01*
X-183862Y-183663D01*
X-182262Y-183663D01*
X-180662Y-182996D01*
X-179862Y-181663D01*
X-179862Y-174996D01*
X-180662Y-173663D01*
X-182262Y-172996D01*
X-183862Y-172996D01*
X-185462Y-173663D01*
X-186262Y-174996D01*
G54D10*
X-192395Y-178330D02*
X-194795Y-179663D01*
X-195595Y-180996D01*
X-195595Y-183663D01*
G54D10*
X-189195Y-183663D02*
X-189195Y-172996D01*
X-193195Y-172996D01*
X-194795Y-173663D01*
X-195595Y-174996D01*
X-195595Y-176330D01*
X-194795Y-177663D01*
X-193195Y-178330D01*
X-189195Y-178330D01*
G54D10*
X-201728Y-178330D02*
X-204928Y-178330D01*
X-204928Y-181663D01*
X-204128Y-182996D01*
X-202528Y-183663D01*
X-200928Y-183663D01*
X-199328Y-182996D01*
X-198528Y-181663D01*
X-198528Y-174996D01*
X-199328Y-173663D01*
X-200928Y-172996D01*
X-202528Y-172996D01*
X-204128Y-173663D01*
X-204928Y-174996D01*
G54D10*
X-179862Y-163663D02*
X-179862Y-152996D01*
X-183862Y-152996D01*
X-185462Y-153663D01*
X-186262Y-154996D01*
X-186262Y-156330D01*
X-185462Y-157663D01*
X-183862Y-158330D01*
X-185462Y-158996D01*
X-186262Y-160330D01*
X-186262Y-161663D01*
X-185462Y-162996D01*
X-183862Y-163663D01*
X-179862Y-163663D01*
G54D10*
X-179862Y-158330D02*
X-183862Y-158330D01*
G54D10*
X-189195Y-163663D02*
X-193195Y-152996D01*
X-197195Y-163663D01*
G54D10*
X-190795Y-159663D02*
X-195595Y-159663D01*
G54D10*
X-203328Y-163663D02*
X-203328Y-152996D01*
G54D10*
X-200128Y-152996D02*
X-206528Y-152996D01*
G54D10*
X-179862Y-143663D02*
X-179862Y-132996D01*
X-183862Y-132996D01*
X-185462Y-133663D01*
X-186262Y-134996D01*
X-186262Y-136330D01*
X-185462Y-137663D01*
X-183862Y-138330D01*
X-185462Y-138996D01*
X-186262Y-140330D01*
X-186262Y-141663D01*
X-185462Y-142996D01*
X-183862Y-143663D01*
X-179862Y-143663D01*
G54D10*
X-179862Y-138330D02*
X-183862Y-138330D01*
G54D10*
X-189195Y-136996D02*
X-193195Y-132996D01*
X-193195Y-143663D01*
G54D10*
X-215862Y-143663D02*
X-215862Y-132996D01*
X-219862Y-132996D01*
X-221462Y-133663D01*
X-222262Y-134996D01*
X-222262Y-136330D01*
X-221462Y-137663D01*
X-219862Y-138330D01*
X-221462Y-138996D01*
X-222262Y-140330D01*
X-222262Y-141663D01*
X-221462Y-142996D01*
X-219862Y-143663D01*
X-215862Y-143663D01*
G54D10*
X-215862Y-138330D02*
X-219862Y-138330D01*
G54D10*
X-231595Y-143663D02*
X-225195Y-143663D01*
X-225195Y-142996D01*
X-225995Y-141663D01*
X-230795Y-137663D01*
X-231595Y-136330D01*
X-231595Y-134996D01*
X-230795Y-133663D01*
X-229195Y-132996D01*
X-227595Y-132996D01*
X-225995Y-133663D01*
X-225195Y-134996D01*
G54D10*
X-215862Y-152996D02*
X-219862Y-163663D01*
X-223862Y-152996D01*
G54D10*
X-226795Y-163663D02*
X-226795Y-152996D01*
X-230795Y-152996D01*
X-232395Y-153663D01*
X-233195Y-154996D01*
X-233195Y-161663D01*
X-232395Y-162996D01*
X-230795Y-163663D01*
X-226795Y-163663D01*
G54D10*
X-236128Y-163663D02*
X-236128Y-152996D01*
X-240128Y-152996D01*
X-241728Y-153663D01*
X-242528Y-154996D01*
X-242528Y-161663D01*
X-241728Y-162996D01*
X-240128Y-163663D01*
X-236128Y-163663D01*
G54D10*
X-215862Y-183663D02*
X-219862Y-172996D01*
X-223862Y-183663D01*
G54D10*
X-217462Y-179663D02*
X-222262Y-179663D01*
G54D10*
X-233195Y-183663D02*
X-226795Y-183663D01*
X-226795Y-182996D01*
X-227595Y-181663D01*
X-232395Y-177663D01*
X-233195Y-176330D01*
X-233195Y-174996D01*
X-232395Y-173663D01*
X-230795Y-172996D01*
X-229195Y-172996D01*
X-227595Y-173663D01*
X-226795Y-174996D01*
G54D10*
X-215862Y-203663D02*
X-219862Y-192996D01*
X-223862Y-203663D01*
G54D10*
X-217462Y-199663D02*
X-222262Y-199663D01*
G54D10*
X-226795Y-196996D02*
X-230795Y-192996D01*
X-230795Y-203663D01*
G54D10*
X-37762Y-67163D02*
X-36962Y-68496D01*
X-35362Y-69163D01*
X-33762Y-69163D01*
X-32162Y-68496D01*
X-31362Y-67163D01*
X-31362Y-60496D01*
X-32162Y-59163D01*
X-33762Y-58496D01*
X-35362Y-58496D01*
X-36962Y-59163D01*
X-37762Y-60496D01*
G54D10*
X-47095Y-60496D02*
X-47095Y-67163D01*
X-46295Y-68496D01*
X-44695Y-69163D01*
X-43095Y-69163D01*
X-41495Y-68496D01*
X-40695Y-67163D01*
X-40695Y-60496D01*
X-41495Y-59163D01*
X-43095Y-58496D01*
X-44695Y-58496D01*
X-46295Y-59163D01*
X-47095Y-60496D01*
G54D10*
X-50028Y-69163D02*
X-56428Y-69163D01*
G54D10*
X-53228Y-69163D02*
X-53228Y-58496D01*
G54D10*
X-50028Y-58496D02*
X-56428Y-58496D01*
G54D10*
X-59361Y-58496D02*
X-59361Y-69163D01*
X-64961Y-69163D01*
G54D10*
X-37762Y-87163D02*
X-36962Y-88496D01*
X-35362Y-89163D01*
X-33762Y-89163D01*
X-32162Y-88496D01*
X-31362Y-87163D01*
X-31362Y-80496D01*
X-32162Y-79163D01*
X-33762Y-78496D01*
X-35362Y-78496D01*
X-36962Y-79163D01*
X-37762Y-80496D01*
G54D10*
X-47095Y-80496D02*
X-47095Y-87163D01*
X-46295Y-88496D01*
X-44695Y-89163D01*
X-43095Y-89163D01*
X-41495Y-88496D01*
X-40695Y-87163D01*
X-40695Y-80496D01*
X-41495Y-79163D01*
X-43095Y-78496D01*
X-44695Y-78496D01*
X-46295Y-79163D01*
X-47095Y-80496D01*
G54D10*
X-50028Y-89163D02*
X-56428Y-89163D01*
G54D10*
X-53228Y-89163D02*
X-53228Y-78496D01*
G54D10*
X-50028Y-78496D02*
X-56428Y-78496D01*
G54D10*
X-59361Y-78496D02*
X-59361Y-89163D01*
X-64961Y-89163D01*
G54D10*
X-31362Y-109163D02*
X-31362Y-98496D01*
X-35362Y-98496D01*
X-36962Y-99163D01*
X-37762Y-100496D01*
X-37762Y-101830D01*
X-36962Y-103163D01*
X-35362Y-103830D01*
X-36962Y-104496D01*
X-37762Y-105830D01*
X-37762Y-107163D01*
X-36962Y-108496D01*
X-35362Y-109163D01*
X-31362Y-109163D01*
G54D10*
X-31362Y-103830D02*
X-35362Y-103830D01*
G54D10*
X-40695Y-109163D02*
X-44695Y-98496D01*
X-48695Y-109163D01*
G54D10*
X-42295Y-105163D02*
X-47095Y-105163D01*
G54D10*
X-54828Y-109163D02*
X-54828Y-98496D01*
G54D10*
X-51628Y-98496D02*
X-58028Y-98496D01*
G54D10*
X-60961Y-104496D02*
X-67361Y-104496D01*
G54D10*
X-64161Y-101830D02*
X-64161Y-107163D01*
G54D10*
X-31362Y-129163D02*
X-31362Y-118496D01*
X-35362Y-118496D01*
X-36962Y-119163D01*
X-37762Y-120496D01*
X-37762Y-121830D01*
X-36962Y-123163D01*
X-35362Y-123830D01*
X-36962Y-124496D01*
X-37762Y-125830D01*
X-37762Y-127163D01*
X-36962Y-128496D01*
X-35362Y-129163D01*
X-31362Y-129163D01*
G54D10*
X-31362Y-123830D02*
X-35362Y-123830D01*
G54D10*
X-40695Y-129163D02*
X-44695Y-118496D01*
X-48695Y-129163D01*
G54D10*
X-42295Y-125163D02*
X-47095Y-125163D01*
G54D10*
X-54828Y-129163D02*
X-54828Y-118496D01*
G54D10*
X-51628Y-118496D02*
X-58028Y-118496D01*
G54D10*
X-60961Y-124496D02*
X-67361Y-124496D01*
G54D10*
X-244362Y-33663D02*
X-244362Y-22996D01*
X-248362Y-29663D01*
X-252362Y-22996D01*
X-252362Y-33663D01*
G54D10*
X-261695Y-33663D02*
X-255295Y-33663D01*
X-255295Y-32996D01*
X-256095Y-31663D01*
X-260895Y-27663D01*
X-261695Y-26330D01*
X-261695Y-24996D01*
X-260895Y-23663D01*
X-259295Y-22996D01*
X-257695Y-22996D01*
X-256095Y-23663D01*
X-255295Y-24996D01*
G54D10*
X-243862Y-54163D02*
X-243862Y-43496D01*
X-247862Y-50163D01*
X-251862Y-43496D01*
X-251862Y-54163D01*
G54D10*
X-261195Y-54163D02*
X-254795Y-54163D01*
X-254795Y-53496D01*
X-255595Y-52163D01*
X-260395Y-48163D01*
X-261195Y-46830D01*
X-261195Y-45496D01*
X-260395Y-44163D01*
X-258795Y-43496D01*
X-257195Y-43496D01*
X-255595Y-44163D01*
X-254795Y-45496D01*
G54D10*
X-243862Y-74163D02*
X-243862Y-63496D01*
X-247862Y-70163D01*
X-251862Y-63496D01*
X-251862Y-74163D01*
G54D10*
X-254795Y-67496D02*
X-258795Y-63496D01*
X-258795Y-74163D01*
G54D10*
X-243862Y-94163D02*
X-243862Y-83496D01*
X-247862Y-90163D01*
X-251862Y-83496D01*
X-251862Y-94163D01*
G54D10*
X-254795Y-87496D02*
X-258795Y-83496D01*
X-258795Y-94163D01*
G54D10*
X-183062Y28670D02*
X-186262Y28670D01*
X-186262Y25337D01*
X-185462Y24004D01*
X-183862Y23337D01*
X-182262Y23337D01*
X-180662Y24004D01*
X-179862Y25337D01*
X-179862Y32004D01*
X-180662Y33337D01*
X-182262Y34004D01*
X-183862Y34004D01*
X-185462Y33337D01*
X-186262Y32004D01*
G54D10*
X-189195Y23337D02*
X-189195Y34004D01*
X-195595Y23337D01*
X-195595Y34004D01*
G54D10*
X-198528Y23337D02*
X-198528Y34004D01*
X-202528Y34004D01*
X-204128Y33337D01*
X-204928Y32004D01*
X-204928Y25337D01*
X-204128Y24004D01*
X-202528Y23337D01*
X-198528Y23337D01*
G54D10*
X-186262Y45337D02*
X-185462Y44004D01*
X-183862Y43337D01*
X-182262Y43337D01*
X-180662Y44004D01*
X-179862Y45337D01*
X-179862Y52004D01*
X-180662Y53337D01*
X-182262Y54004D01*
X-183862Y54004D01*
X-185462Y53337D01*
X-186262Y52004D01*
G54D10*
X-192395Y48670D02*
X-194795Y47337D01*
X-195595Y46004D01*
X-195595Y43337D01*
G54D10*
X-189195Y43337D02*
X-189195Y54004D01*
X-193195Y54004D01*
X-194795Y53337D01*
X-195595Y52004D01*
X-195595Y50670D01*
X-194795Y49337D01*
X-193195Y48670D01*
X-189195Y48670D01*
G54D10*
X-201728Y48670D02*
X-204928Y48670D01*
X-204928Y45337D01*
X-204128Y44004D01*
X-202528Y43337D01*
X-200928Y43337D01*
X-199328Y44004D01*
X-198528Y45337D01*
X-198528Y52004D01*
X-199328Y53337D01*
X-200928Y54004D01*
X-202528Y54004D01*
X-204128Y53337D01*
X-204928Y52004D01*
G54D10*
X-179862Y63337D02*
X-179862Y74004D01*
X-183862Y74004D01*
X-185462Y73337D01*
X-186262Y72004D01*
X-186262Y70670D01*
X-185462Y69337D01*
X-183862Y68670D01*
X-185462Y68004D01*
X-186262Y66670D01*
X-186262Y65337D01*
X-185462Y64004D01*
X-183862Y63337D01*
X-179862Y63337D01*
G54D10*
X-179862Y68670D02*
X-183862Y68670D01*
G54D10*
X-189195Y63337D02*
X-193195Y74004D01*
X-197195Y63337D01*
G54D10*
X-190795Y67337D02*
X-195595Y67337D01*
G54D10*
X-203328Y63337D02*
X-203328Y74004D01*
G54D10*
X-200128Y74004D02*
X-206528Y74004D01*
G54D10*
X-179862Y83337D02*
X-179862Y94004D01*
X-183862Y94004D01*
X-185462Y93337D01*
X-186262Y92004D01*
X-186262Y90670D01*
X-185462Y89337D01*
X-183862Y88670D01*
X-185462Y88004D01*
X-186262Y86670D01*
X-186262Y85337D01*
X-185462Y84004D01*
X-183862Y83337D01*
X-179862Y83337D01*
G54D10*
X-179862Y88670D02*
X-183862Y88670D01*
G54D10*
X-189195Y90004D02*
X-193195Y94004D01*
X-193195Y83337D01*
G54D10*
X-215862Y83337D02*
X-215862Y94004D01*
X-219862Y94004D01*
X-221462Y93337D01*
X-222262Y92004D01*
X-222262Y90670D01*
X-221462Y89337D01*
X-219862Y88670D01*
X-221462Y88004D01*
X-222262Y86670D01*
X-222262Y85337D01*
X-221462Y84004D01*
X-219862Y83337D01*
X-215862Y83337D01*
G54D10*
X-215862Y88670D02*
X-219862Y88670D01*
G54D10*
X-231595Y83337D02*
X-225195Y83337D01*
X-225195Y84004D01*
X-225995Y85337D01*
X-230795Y89337D01*
X-231595Y90670D01*
X-231595Y92004D01*
X-230795Y93337D01*
X-229195Y94004D01*
X-227595Y94004D01*
X-225995Y93337D01*
X-225195Y92004D01*
G54D10*
X-215862Y74004D02*
X-219862Y63337D01*
X-223862Y74004D01*
G54D10*
X-226795Y63337D02*
X-226795Y74004D01*
X-230795Y74004D01*
X-232395Y73337D01*
X-233195Y72004D01*
X-233195Y65337D01*
X-232395Y64004D01*
X-230795Y63337D01*
X-226795Y63337D01*
G54D10*
X-236128Y63337D02*
X-236128Y74004D01*
X-240128Y74004D01*
X-241728Y73337D01*
X-242528Y72004D01*
X-242528Y65337D01*
X-241728Y64004D01*
X-240128Y63337D01*
X-236128Y63337D01*
G54D10*
X-215862Y43337D02*
X-219862Y54004D01*
X-223862Y43337D01*
G54D10*
X-217462Y47337D02*
X-222262Y47337D01*
G54D10*
X-233195Y43337D02*
X-226795Y43337D01*
X-226795Y44004D01*
X-227595Y45337D01*
X-232395Y49337D01*
X-233195Y50670D01*
X-233195Y52004D01*
X-232395Y53337D01*
X-230795Y54004D01*
X-229195Y54004D01*
X-227595Y53337D01*
X-226795Y52004D01*
G54D10*
X-215862Y23337D02*
X-219862Y34004D01*
X-223862Y23337D01*
G54D10*
X-217462Y27337D02*
X-222262Y27337D01*
G54D10*
X-226795Y30004D02*
X-230795Y34004D01*
X-230795Y23337D01*
G54D10*
X-23335Y-53149D02*
X-24402Y-53816D01*
X-25148Y-53816D01*
X-26215Y-53149D01*
X-26535Y-51816D01*
X-26535Y-45149D01*
G54D10*
X-26535Y-46882D02*
X-26002Y-45549D01*
X-24935Y-45149D01*
X-23868Y-45549D01*
X-23335Y-46882D01*
X-23335Y-49549D01*
X-23868Y-50882D01*
X-24935Y-51149D01*
X-26002Y-50882D01*
X-26535Y-49549D01*
G54D10*
X-29468Y-51149D02*
X-29468Y-45149D01*
G54D10*
X-29468Y-43149D02*
X-29468Y-43149D01*
G54D10*
X-33468Y-40482D02*
X-33468Y-50482D01*
X-34001Y-51149D01*
X-34534Y-50882D01*
G54D10*
X-32401Y-45149D02*
X-34534Y-45149D01*
G54D10*
X-37467Y-51149D02*
X-37467Y-40482D01*
G54D10*
X-37467Y-46882D02*
X-38000Y-45549D01*
X-39067Y-45149D01*
X-40134Y-45549D01*
X-40667Y-46882D01*
X-40667Y-51149D01*
G54D10*
X-46800Y-45149D02*
X-46800Y-51149D01*
G54D10*
X-46800Y-49816D02*
X-46267Y-50882D01*
X-45200Y-51149D01*
X-44133Y-50882D01*
X-43600Y-49816D01*
X-43600Y-45149D01*
G54D10*
X-49733Y-51149D02*
X-49733Y-40482D01*
G54D10*
X-49733Y-46882D02*
X-50266Y-45549D01*
X-51333Y-45149D01*
X-52400Y-45549D01*
X-52933Y-46882D01*
X-52933Y-49549D01*
X-52400Y-50882D01*
X-51333Y-51149D01*
X-50266Y-50882D01*
X-49733Y-49549D01*
G54D10*
X-56293Y-51149D02*
X-55866Y-51149D01*
X-55866Y-50616D01*
X-56293Y-50616D01*
X-56293Y-51149D01*
X-55866Y-51149D01*
G54D10*
X-61893Y-45549D02*
X-60826Y-45149D01*
X-59759Y-45549D01*
X-59226Y-46882D01*
X-59226Y-49549D01*
X-59759Y-50882D01*
X-60826Y-51149D01*
X-61893Y-50882D01*
G54D10*
X-68026Y-49549D02*
X-68026Y-46882D01*
X-67493Y-45549D01*
X-66426Y-45149D01*
X-65359Y-45549D01*
X-64826Y-46882D01*
X-64826Y-49549D01*
X-65359Y-50882D01*
X-66426Y-51149D01*
X-67493Y-50882D01*
X-68026Y-49549D01*
G54D10*
X-70959Y-51149D02*
X-70959Y-45149D01*
G54D10*
X-70959Y-46216D02*
X-72026Y-45149D01*
X-73092Y-45549D01*
X-73626Y-46482D01*
X-73626Y-51149D01*
G54D10*
X-73626Y-46216D02*
X-74692Y-45149D01*
X-75759Y-45549D01*
X-76292Y-46482D01*
X-76292Y-51149D01*
G54D10*
X-79225Y-51149D02*
X-83492Y-40482D01*
G54D10*
X-86425Y-51149D02*
X-89092Y-40482D01*
X-91758Y-51149D01*
G54D10*
X-87492Y-47149D02*
X-90692Y-47149D01*
G54D10*
X-96824Y-51149D02*
X-96824Y-40482D01*
G54D10*
X-94691Y-40482D02*
X-98958Y-40482D01*
G54D10*
X-101891Y-51149D02*
X-104558Y-40482D01*
X-107224Y-51149D01*
G54D10*
X-102958Y-47149D02*
X-106158Y-47149D01*
G54D10*
X-110157Y-51149D02*
X-110157Y-40482D01*
X-112824Y-47149D01*
X-115490Y-40482D01*
X-115490Y-51149D01*
G54D10*
X-118423Y-51149D02*
X-121090Y-40482D01*
X-123756Y-51149D01*
G54D10*
X-119490Y-47149D02*
X-122690Y-47149D01*
G54D10*
X-126689Y-51149D02*
X-126689Y-40482D01*
G54D10*
X-130956Y-51149D02*
X-130956Y-40482D01*
G54D10*
X-126689Y-45816D02*
X-130956Y-45816D01*
G54D10*
X-133889Y-51149D02*
X-138156Y-40482D01*
G54D10*
X-141089Y-51149D02*
X-141089Y-45149D01*
G54D10*
X-141089Y-46482D02*
X-142156Y-45149D01*
X-143222Y-45149D01*
G54D10*
X-149355Y-50482D02*
X-148502Y-51149D01*
X-147435Y-51149D01*
X-146368Y-50482D01*
X-146155Y-49149D01*
X-146155Y-46882D01*
X-146688Y-45549D01*
X-147755Y-45149D01*
X-148822Y-45549D01*
X-149355Y-46482D01*
X-149355Y-47816D01*
X-146155Y-47816D01*
G54D10*
X-152288Y-51149D02*
X-152288Y-45149D01*
G54D10*
X-152288Y-46216D02*
X-153355Y-45149D01*
X-154421Y-45549D01*
X-154955Y-46482D01*
X-154955Y-51149D01*
G54D10*
X-154955Y-46216D02*
X-156021Y-45149D01*
X-157088Y-45549D01*
X-157621Y-46482D01*
X-157621Y-51149D01*
G54D10*
X-163754Y-49549D02*
X-163754Y-46882D01*
X-163221Y-45549D01*
X-162154Y-45149D01*
X-161087Y-45549D01*
X-160554Y-46882D01*
X-160554Y-49549D01*
X-161087Y-50882D01*
X-162154Y-51149D01*
X-163221Y-50882D01*
X-163754Y-49549D01*
G54D10*
X-167754Y-40482D02*
X-167754Y-50482D01*
X-168287Y-51149D01*
X-168820Y-50882D01*
G54D10*
X-166687Y-45149D02*
X-168820Y-45149D01*
G54D10*
X-174953Y-50482D02*
X-174100Y-51149D01*
X-173033Y-51149D01*
X-171966Y-50482D01*
X-171753Y-49149D01*
X-171753Y-46882D01*
X-172286Y-45549D01*
X-173353Y-45149D01*
X-174420Y-45549D01*
X-174953Y-46482D01*
X-174953Y-47816D01*
X-171753Y-47816D01*
G54D10*
X-177886Y-51149D02*
X-183219Y-51149D01*
G54D10*
X-187219Y-40482D02*
X-187219Y-50482D01*
X-187752Y-51149D01*
X-188285Y-50882D01*
G54D10*
X-186152Y-45149D02*
X-188285Y-45149D01*
G54D10*
X-191218Y-45816D02*
X-192285Y-45149D01*
X-193565Y-45149D01*
X-194418Y-46482D01*
X-194418Y-51149D01*
G54D10*
X-194418Y-49149D02*
X-193885Y-47816D01*
X-192818Y-47549D01*
X-191751Y-47816D01*
X-191218Y-49149D01*
X-191431Y-50482D01*
X-192285Y-51149D01*
X-192818Y-51149D01*
X-193031Y-51149D01*
X-193885Y-50482D01*
X-194418Y-49149D01*
G54D10*
X-197351Y-51149D02*
X-197351Y-45149D01*
G54D10*
X-197351Y-46482D02*
X-197884Y-45549D01*
X-198951Y-45149D01*
X-200018Y-45549D01*
X-200551Y-46482D01*
X-200551Y-51149D01*
G54D10*
X-203484Y-51149D02*
X-203484Y-40482D01*
G54D10*
X-205084Y-47149D02*
X-206684Y-51149D01*
G54D10*
X-203484Y-48482D02*
X-206684Y-45149D01*
G54D10*
X-24557Y-21734D02*
X-24557Y-31734D01*
X-25090Y-32400D01*
X-25624Y-32134D01*
G54D10*
X-23490Y-26400D02*
X-25624Y-26400D01*
G54D10*
X-28983Y-32400D02*
X-28556Y-32400D01*
X-28556Y-31867D01*
X-28983Y-31867D01*
X-28983Y-32400D01*
X-28556Y-32400D01*
G54D10*
X-31916Y-32400D02*
X-31916Y-26400D01*
G54D10*
X-31916Y-27467D02*
X-32983Y-26400D01*
X-34050Y-26800D01*
X-34583Y-27734D01*
X-34583Y-32400D01*
G54D10*
X-34583Y-27467D02*
X-35650Y-26400D01*
X-36716Y-26800D01*
X-37250Y-27734D01*
X-37250Y-32400D01*
G54D10*
X-43382Y-31734D02*
X-42529Y-32400D01*
X-41462Y-32400D01*
X-40396Y-31734D01*
X-40182Y-30400D01*
X-40182Y-28134D01*
X-40716Y-26800D01*
X-41782Y-26400D01*
X-42849Y-26800D01*
X-43382Y-27734D01*
X-43382Y-29067D01*
X-40182Y-29067D01*
G54D10*
X-46315Y-32400D02*
X-50582Y-21734D01*
G54D10*
X-53515Y-34400D02*
X-54582Y-35067D01*
X-55329Y-35067D01*
X-56395Y-34400D01*
X-56715Y-33067D01*
X-56715Y-26400D01*
G54D10*
X-56715Y-28134D02*
X-56182Y-26800D01*
X-55115Y-26400D01*
X-54049Y-26800D01*
X-53515Y-28134D01*
X-53515Y-30800D01*
X-54049Y-32134D01*
X-55115Y-32400D01*
X-56182Y-32134D01*
X-56715Y-30800D01*
G54D10*
X-62848Y-30800D02*
X-62848Y-28134D01*
X-62315Y-26800D01*
X-61248Y-26400D01*
X-60182Y-26800D01*
X-59648Y-28134D01*
X-59648Y-30800D01*
X-60182Y-32134D01*
X-61248Y-32400D01*
X-62315Y-32134D01*
X-62848Y-30800D01*
G54D10*
X-65781Y-26400D02*
X-67915Y-32400D01*
X-70048Y-26400D01*
G54D10*
X-72981Y-32400D02*
X-72981Y-26400D01*
G54D10*
X-72981Y-27734D02*
X-73515Y-26800D01*
X-74581Y-26400D01*
X-75648Y-26800D01*
X-76181Y-27734D01*
X-76181Y-32400D01*
G54D10*
X-82314Y-30800D02*
X-82314Y-28134D01*
X-81781Y-26800D01*
X-80714Y-26400D01*
X-79648Y-26800D01*
X-79114Y-28134D01*
X-79114Y-30800D01*
X-79648Y-32134D01*
X-80714Y-32400D01*
X-81781Y-32134D01*
X-82314Y-30800D01*
G54D10*
X-85247Y-32400D02*
X-85247Y-21734D01*
G54D10*
X-86847Y-28400D02*
X-88447Y-32400D01*
G54D10*
X-85247Y-29734D02*
X-88447Y-26400D01*
G54D10*
X-94580Y-30800D02*
X-94580Y-28134D01*
X-94047Y-26800D01*
X-92980Y-26400D01*
X-91914Y-26800D01*
X-91380Y-28134D01*
X-91380Y-30800D01*
X-91914Y-32134D01*
X-92980Y-32400D01*
X-94047Y-32134D01*
X-94580Y-30800D01*
G54D10*
X-100713Y-32400D02*
X-100713Y-21734D01*
G54D10*
X-100713Y-28134D02*
X-100180Y-26800D01*
X-99113Y-26400D01*
X-98047Y-26800D01*
X-97513Y-28134D01*
X-97513Y-30800D01*
X-98047Y-32134D01*
X-99113Y-32400D01*
X-100180Y-32134D01*
X-100713Y-30800D01*
G54D10*
X-106846Y-31734D02*
X-105993Y-32400D01*
X-104926Y-32400D01*
X-103860Y-31734D01*
X-103646Y-30400D01*
X-103646Y-28134D01*
X-104180Y-26800D01*
X-105246Y-26400D01*
X-106313Y-26800D01*
X-106846Y-27734D01*
X-106846Y-29067D01*
X-103646Y-29067D01*
G54D10*
X-109779Y-32400D02*
X-109779Y-26400D01*
G54D10*
X-109779Y-27734D02*
X-110846Y-26400D01*
X-111913Y-26400D01*
M02*
