; Drill file
; Format: 2.4 (00.0000)
M48
INCH
T01C0.0079
T02C0.0118
T03C0.0315
%
G05
G90
T01
X-004090Y-002820
X-004090Y-002590
X-004090Y-002350
X-003640Y-002350
X-003640Y-002590
X-003640Y-002820
X-003180Y-002820
X-003180Y-002590
X-003180Y-002350
X-001960Y-005810
X-001960Y-006010
X-001960Y-006210
X-001770Y-006210
X-001570Y-006210
X-001570Y-006010
X-001770Y-006010
X-001770Y-005810
X-001570Y-005810
X-001570Y-006400
X-001770Y-006400
X-001960Y-006400
X-001960Y-006600
X-001770Y-006600
X-001570Y-006600
T02
X-008660Y-006250
X-009090Y-005730
X-007470Y-004590
X-006490Y-004080
X-006490Y-003610
X-005130Y-004490
X-004800Y-004200
X-003950Y-003880
X-003680Y-004490
X-003090Y-003550
X-002380Y-004490
X-002240Y-005140
X-002750Y-005460
X-004130Y-006290
X-004880Y-005140
X-006020Y-005930
X-006690Y-006250
X-006060Y-006760
X-007670Y-007270
X-008660Y-003810
X-008660Y-003570
X-008660Y-003330
X-005270Y-002510
X-004580Y-003240
X-003930Y-001440
X-003660Y-000850
X-003240Y-001500
X-002320Y-001520
X-004740Y-000850
X-004880Y-001290
X-006690Y000940
X-007160Y000940
X-007160Y001530
X-008200Y002410
X-008240Y003600
X-008540Y004090
X-008830Y004780
X-010070Y005230
X-010070Y007300
X-010590Y008100
X-008070Y007690
X-008070Y007140
X-007160Y005660
X-007160Y004480
X-006290Y004380
X-006290Y003400
X-007160Y003300
X-001350Y003890
X-001060Y004480
X-001350Y005660
X-001350Y002710
X-000980Y-005810
X-000960Y-006310
X-000680Y-007370
T03
X-010700Y-007820
X-010700Y-007030
X-010700Y-006250
X-010700Y-005460
X-009920Y-005460
X-009920Y-006250
X-009920Y-007030
X-009920Y-007820
X-010700Y-003490
X-010700Y-002700
X-010700Y-001920
X-010700Y-001130
X-010700Y001140
X-010700Y001920
X-010700Y002710
X-010700Y003500
X-009920Y003500
X-009920Y002710
X-009920Y001920
X-009920Y001140
X-000860Y-002510
X-000860Y-003290
X-000860Y-004080
X-000860Y-004870
M30
