%FSLAX34Y34*%
%MOMM*%
%LNCOPPER_TOP*%
G71*
G01*
%ADD10R, 0.35X0.80*%
%ADD11R, 0.80X0.35*%
%ADD12R, 1.00X0.90*%
%ADD13R, 0.80X0.60*%
%ADD14C, 0.60*%
%ADD15C, 0.40*%
%ADD16C, 0.30*%
%ADD17C, 1.30*%
%ADD18R, 0.60X0.80*%
%ADD19R, 0.60X0.24*%
%ADD20R, 0.20X0.80*%
%ADD21R, 1.58X2.85*%
%ADD22C, 0.40*%
%ADD23R, 0.24X0.60*%
%ADD24R, 0.60X0.20*%
%ADD25R, 3.75X0.75*%
%ADD26R, 1.10X0.75*%
%ADD27R, 1.90X1.50*%
%ADD28R, 2.80X1.95*%
%ADD29C, 0.20*%
%ADD30C, 0.50*%
%ADD31C, 0.24*%
%ADD32R, 1.80X1.40*%
%ADD33C, 1.30*%
%LPD*%
X-261360Y158839D02*
G54D10*
D03*
X-261360Y198839D02*
G54D10*
D03*
X-256360Y158839D02*
G54D10*
D03*
X-256360Y198839D02*
G54D10*
D03*
X-251360Y158839D02*
G54D10*
D03*
X-251360Y198839D02*
G54D10*
D03*
X-246360Y158839D02*
G54D10*
D03*
X-246360Y198839D02*
G54D10*
D03*
X-241360Y158839D02*
G54D10*
D03*
X-241360Y198839D02*
G54D10*
D03*
X-236360Y158839D02*
G54D10*
D03*
X-236360Y198839D02*
G54D10*
D03*
X-268860Y166339D02*
G54D11*
D03*
X-228860Y166339D02*
G54D11*
D03*
X-268860Y171339D02*
G54D11*
D03*
X-228860Y171339D02*
G54D11*
D03*
X-268860Y176339D02*
G54D11*
D03*
X-228860Y176339D02*
G54D11*
D03*
X-268860Y181339D02*
G54D11*
D03*
X-228860Y181339D02*
G54D11*
D03*
X-268860Y186339D02*
G54D11*
D03*
X-228860Y186339D02*
G54D11*
D03*
X-268860Y191339D02*
G54D11*
D03*
X-228860Y191339D02*
G54D11*
D03*
X-196862Y143837D02*
G54D12*
D03*
X-16862Y143837D02*
G54D12*
D03*
X-196862Y128837D02*
G54D12*
D03*
X-16862Y128837D02*
G54D12*
D03*
X-196862Y113837D02*
G54D12*
D03*
X-16862Y113837D02*
G54D12*
D03*
X-196862Y98837D02*
G54D12*
D03*
X-16862Y98837D02*
G54D12*
D03*
X-196862Y83837D02*
G54D12*
D03*
X-16862Y83837D02*
G54D12*
D03*
X-196862Y68837D02*
G54D12*
D03*
X-16862Y68837D02*
G54D12*
D03*
X-196862Y53837D02*
G54D12*
D03*
X-16862Y53837D02*
G54D12*
D03*
X-196862Y38837D02*
G54D12*
D03*
X-16862Y38837D02*
G54D12*
D03*
X-196862Y23837D02*
G54D12*
D03*
X-16862Y23837D02*
G54D12*
D03*
X-211862Y143837D02*
G54D13*
D03*
X-211862Y129837D02*
G54D13*
D03*
X-204862Y171337D02*
G54D13*
D03*
X-204862Y157337D02*
G54D13*
D03*
X-204862Y181337D02*
G54D14*
D03*
G54D15*
X-196862Y128837D02*
X-210862Y128837D01*
X-211862Y129837D01*
G54D15*
X-196862Y143837D02*
X-204862Y157337D01*
G54D16*
X-204862Y171337D02*
X-204862Y181337D01*
X-34362Y98837D02*
G54D14*
D03*
G54D16*
X-16862Y98837D02*
X-34362Y98837D01*
X-224362Y143837D02*
G54D13*
D03*
X-224362Y129837D02*
G54D13*
D03*
X-236862Y122837D02*
G54D13*
D03*
X-236862Y108837D02*
G54D13*
D03*
G54D16*
X-196862Y143837D02*
X-224362Y143837D01*
X-249362Y122837D02*
G54D13*
D03*
X-249362Y108837D02*
G54D13*
D03*
G54D16*
X-224362Y129837D02*
X-224362Y121337D01*
X-216862Y113837D01*
X-196862Y113837D01*
G54D16*
X-236862Y108837D02*
X-216862Y88837D01*
X-216862Y57337D01*
X-213362Y53837D01*
X-196862Y53837D01*
X-271862Y28837D02*
G54D17*
D03*
X-271862Y48837D02*
G54D17*
D03*
X-271862Y68837D02*
G54D17*
D03*
X-271862Y88837D02*
G54D17*
D03*
G54D16*
X-228860Y166339D02*
X-227364Y166339D01*
X-218862Y157837D01*
X-208362Y157837D01*
X-204862Y157337D01*
X-217362Y168837D02*
G54D13*
D03*
X-217362Y182837D02*
G54D13*
D03*
G54D16*
X-228860Y166339D02*
X-219860Y166339D01*
X-217362Y168837D01*
X-204862Y195337D02*
G54D14*
D03*
G54D16*
X-261360Y198839D02*
X-277860Y198839D01*
X-280862Y195837D01*
X-280862Y118837D01*
X-277862Y115837D01*
X-240862Y115837D01*
X-236862Y111837D01*
X-236862Y108837D01*
G54D16*
X-228860Y191339D02*
X-208860Y191339D01*
X-204862Y195337D01*
G54D16*
X-228860Y191339D02*
X-220364Y191339D01*
X-217862Y188837D01*
X-217862Y183337D01*
X-217362Y182837D01*
X-268862Y205837D02*
G54D14*
D03*
G54D16*
X-256360Y198839D02*
X-256360Y205335D01*
X-258862Y207837D01*
X-266862Y207837D01*
X-268862Y205837D01*
X-224362Y121337D02*
G54D14*
D03*
X-224362Y205837D02*
G54D18*
D03*
X-210362Y205837D02*
G54D18*
D03*
G54D16*
X-210362Y205837D02*
X-210362Y200837D01*
X-204862Y195337D01*
G54D16*
X-241360Y198839D02*
X-241360Y205339D01*
X-239862Y207837D01*
X-226862Y207837D01*
X-224362Y205837D01*
G54D16*
X-224362Y143837D02*
X-229862Y143837D01*
X-231862Y141837D01*
X-231862Y123837D01*
X-232862Y122837D01*
X-236862Y122837D01*
X-249362Y122837D01*
X-243362Y132837D02*
G54D13*
D03*
X-243362Y146837D02*
G54D13*
D03*
X-268362Y132837D02*
G54D13*
D03*
X-268362Y146837D02*
G54D13*
D03*
G54D16*
X-246360Y158839D02*
X-246360Y149835D01*
X-243362Y146837D01*
G54D16*
X-256360Y158839D02*
X-256360Y149339D01*
X-258862Y146837D01*
X-268362Y146837D01*
X-255862Y132837D02*
G54D14*
D03*
G54D16*
X-251360Y158839D02*
X-251360Y136839D01*
X-255862Y132837D01*
G54D16*
X-268362Y132837D02*
X-243362Y132837D01*
X-34362Y143837D02*
G54D14*
D03*
X-34362Y68837D02*
G54D14*
D03*
G54D16*
X-34362Y68837D02*
X-16862Y68837D01*
G54D16*
X-34362Y143837D02*
X-16862Y143837D01*
X-181862Y23837D02*
G54D14*
D03*
G54D16*
X-196862Y23837D02*
X-181862Y23837D01*
G54D16*
X-196862Y38837D02*
X-210862Y38837D01*
X-224862Y52837D01*
X-224862Y84337D01*
X-249362Y108837D01*
X-251862Y28837D02*
G54D17*
D03*
X-251862Y48837D02*
G54D17*
D03*
X-251862Y68837D02*
G54D17*
D03*
X-251862Y88837D02*
G54D17*
D03*
X-26862Y113837D02*
G54D14*
D03*
G54D16*
X-26862Y113837D02*
X-16862Y113837D01*
G54D16*
X-251862Y28837D02*
X-224862Y28837D01*
X-219862Y23837D01*
X-196862Y23837D01*
X-181862Y143837D02*
G54D14*
D03*
G54D16*
X-181862Y143837D02*
X-196862Y143837D01*
X-181862Y113837D02*
G54D14*
D03*
X-181862Y83837D02*
G54D14*
D03*
G54D16*
X-181862Y113837D02*
X-181862Y83837D01*
X-216862Y103837D02*
G54D14*
D03*
G54D16*
X-196862Y98837D02*
X-211862Y98837D01*
X-216862Y103837D01*
X-209362Y91337D02*
G54D14*
D03*
G54D16*
X-196862Y83837D02*
X-201862Y83837D01*
X-209362Y91337D01*
X-208362Y61337D02*
G54D14*
D03*
G54D16*
X-196862Y68837D02*
X-201862Y68837D01*
X-208362Y61337D01*
G54D16*
X-16862Y128837D02*
X-162862Y128837D01*
X-172862Y118837D01*
X-172862Y47837D01*
X-181862Y38837D01*
X-181862Y38837D02*
G54D14*
D03*
G54D16*
X-16862Y23837D02*
X-169862Y23837D01*
X-169862Y23837D02*
G54D14*
D03*
G36*
X-29362Y148837D02*
X-29362Y136337D01*
X-166862Y136337D01*
X-181862Y121337D01*
X-186862Y121337D01*
X-186862Y136337D01*
X-179362Y136337D01*
X-174362Y141337D01*
X-174362Y146337D01*
X-179362Y151337D01*
X-29362Y151337D01*
X-29362Y148837D01*
G37*
G54D16*
X-29362Y148837D02*
X-29362Y136337D01*
X-166862Y136337D01*
X-181862Y121337D01*
X-186862Y121337D01*
X-186862Y136337D01*
X-179362Y136337D01*
X-174362Y141337D01*
X-174362Y146337D01*
X-179362Y151337D01*
X-29362Y151337D01*
X-29362Y148837D01*
G36*
X-34362Y121337D02*
X-34362Y108837D01*
X-36862Y108837D01*
X-41862Y103837D01*
X-41862Y93837D01*
X-36862Y88837D01*
X-26862Y88837D01*
X-26862Y31337D01*
X-171862Y31337D01*
X-171862Y36337D01*
X-164362Y43837D01*
X-164362Y113837D01*
X-156862Y121337D01*
X-34362Y121337D01*
G37*
G54D16*
X-34362Y121337D02*
X-34362Y108837D01*
X-36862Y108837D01*
X-41862Y103837D01*
X-41862Y93837D01*
X-36862Y88837D01*
X-26862Y88837D01*
X-26862Y31337D01*
X-171862Y31337D01*
X-171862Y36337D01*
X-164362Y43837D01*
X-164362Y113837D01*
X-156862Y121337D01*
X-34362Y121337D01*
G36*
X-171862Y36337D02*
X-176862Y31337D01*
X-184362Y31337D01*
X-186862Y28837D01*
X-186862Y18837D01*
X-176862Y18837D01*
X-176862Y26337D01*
X-169362Y33837D01*
X-171862Y36337D01*
G37*
G54D16*
X-171862Y36337D02*
X-176862Y31337D01*
X-184362Y31337D01*
X-186862Y28837D01*
X-186862Y18837D01*
X-176862Y18837D01*
X-176862Y26337D01*
X-169362Y33837D01*
X-171862Y36337D01*
X-159862Y86337D02*
G54D14*
D03*
X-159862Y111337D02*
G54D14*
D03*
X-271862Y-198663D02*
G54D17*
D03*
X-271862Y-178663D02*
G54D17*
D03*
X-271862Y-158663D02*
G54D17*
D03*
X-271862Y-138663D02*
G54D17*
D03*
X-251862Y-198663D02*
G54D17*
D03*
X-251862Y-178663D02*
G54D17*
D03*
X-251862Y-158663D02*
G54D17*
D03*
X-251862Y-138663D02*
G54D17*
D03*
X-58862Y-142663D02*
G54D19*
D03*
X-30862Y-142663D02*
G54D19*
D03*
X-58862Y-147663D02*
G54D19*
D03*
X-30862Y-147663D02*
G54D19*
D03*
X-58862Y-152663D02*
G54D19*
D03*
X-30862Y-152663D02*
G54D19*
D03*
X-58862Y-157663D02*
G54D19*
D03*
X-30862Y-157663D02*
G54D19*
D03*
X-58862Y-162663D02*
G54D19*
D03*
X-30862Y-162663D02*
G54D19*
D03*
X-58862Y-167663D02*
G54D19*
D03*
X-30862Y-167663D02*
G54D19*
D03*
X-58862Y-172663D02*
G54D19*
D03*
X-30862Y-172663D02*
G54D19*
D03*
X-37958Y-139663D02*
G54D20*
D03*
X-37958Y-175663D02*
G54D20*
D03*
X-42558Y-139663D02*
G54D20*
D03*
X-42558Y-175663D02*
G54D20*
D03*
X-47158Y-139663D02*
G54D20*
D03*
X-47158Y-175663D02*
G54D20*
D03*
X-51758Y-139663D02*
G54D20*
D03*
X-51758Y-175663D02*
G54D20*
D03*
X-44862Y-157663D02*
G54D21*
D03*
X-44862Y-157663D02*
G54D22*
D03*
X-39862Y-157663D02*
G54D22*
D03*
X-49862Y-157663D02*
G54D22*
D03*
X-44862Y-152663D02*
G54D22*
D03*
X-39862Y-152663D02*
G54D22*
D03*
X-49862Y-152663D02*
G54D22*
D03*
X-44862Y-147663D02*
G54D22*
D03*
X-39862Y-147663D02*
G54D22*
D03*
X-49862Y-147663D02*
G54D22*
D03*
X-44862Y-162663D02*
G54D22*
D03*
X-39862Y-162663D02*
G54D22*
D03*
X-49862Y-162663D02*
G54D22*
D03*
X-44862Y-167663D02*
G54D22*
D03*
X-39862Y-167663D02*
G54D22*
D03*
X-49862Y-167663D02*
G54D22*
D03*
X-74862Y-49164D02*
G54D23*
D03*
X-74862Y-82164D02*
G54D23*
D03*
X-79862Y-49164D02*
G54D23*
D03*
X-79862Y-82164D02*
G54D23*
D03*
X-84862Y-49164D02*
G54D23*
D03*
X-84862Y-82164D02*
G54D23*
D03*
X-89862Y-49164D02*
G54D23*
D03*
X-89862Y-82164D02*
G54D23*
D03*
X-94862Y-49164D02*
G54D23*
D03*
X-94862Y-82164D02*
G54D23*
D03*
X-99862Y-49164D02*
G54D23*
D03*
X-99862Y-82164D02*
G54D23*
D03*
X-104862Y-49164D02*
G54D23*
D03*
X-104862Y-82164D02*
G54D23*
D03*
X-109862Y-49164D02*
G54D23*
D03*
X-109862Y-82164D02*
G54D23*
D03*
X-70863Y-73919D02*
G54D24*
D03*
X-113863Y-73919D02*
G54D24*
D03*
X-70863Y-68419D02*
G54D24*
D03*
X-113863Y-68419D02*
G54D24*
D03*
X-70863Y-62919D02*
G54D24*
D03*
X-113863Y-62919D02*
G54D24*
D03*
X-70863Y-57419D02*
G54D24*
D03*
X-113863Y-57419D02*
G54D24*
D03*
X-92362Y-65664D02*
G54D25*
D03*
X-92362Y-65664D02*
G54D22*
D03*
X-92362Y-71664D02*
G54D22*
D03*
X-92362Y-59664D02*
G54D22*
D03*
X-103862Y-65664D02*
G54D22*
D03*
X-103862Y-71664D02*
G54D22*
D03*
X-103862Y-59664D02*
G54D22*
D03*
X-80862Y-65664D02*
G54D22*
D03*
X-80862Y-71664D02*
G54D22*
D03*
X-80862Y-59664D02*
G54D22*
D03*
X-178362Y-116163D02*
G54D26*
D03*
X-235362Y-116163D02*
G54D26*
D03*
X-178362Y-103463D02*
G54D26*
D03*
X-235362Y-103463D02*
G54D26*
D03*
X-178362Y-90763D02*
G54D26*
D03*
X-235362Y-90763D02*
G54D26*
D03*
X-178362Y-78063D02*
G54D26*
D03*
X-235362Y-78063D02*
G54D26*
D03*
X-178362Y-65363D02*
G54D26*
D03*
X-235362Y-65363D02*
G54D26*
D03*
X-178362Y-52663D02*
G54D26*
D03*
X-235362Y-52663D02*
G54D26*
D03*
X-178362Y-39963D02*
G54D26*
D03*
X-235362Y-39963D02*
G54D26*
D03*
X-178362Y-27263D02*
G54D26*
D03*
X-235362Y-27263D02*
G54D26*
D03*
X-114862Y-188163D02*
G54D27*
D03*
X-73862Y-188163D02*
G54D27*
D03*
X-36862Y-57163D02*
G54D13*
D03*
X-36862Y-71163D02*
G54D13*
D03*
X-92362Y-65664D02*
G54D28*
D03*
G54D29*
X-70863Y-57419D02*
X-78617Y-57419D01*
X-80862Y-59664D01*
G54D29*
X-70863Y-73919D02*
X-78608Y-73919D01*
X-80862Y-71664D01*
X-21862Y-63663D02*
G54D17*
D03*
X-21862Y-83663D02*
G54D17*
D03*
X-49362Y-57163D02*
G54D13*
D03*
X-49362Y-71163D02*
G54D13*
D03*
X-14862Y-21663D02*
G54D18*
D03*
X-28862Y-21663D02*
G54D18*
D03*
X-14862Y-34163D02*
G54D18*
D03*
X-28862Y-34163D02*
G54D18*
D03*
X-14862Y-46663D02*
G54D18*
D03*
X-28862Y-46663D02*
G54D18*
D03*
G54D30*
X-14862Y-21663D02*
X-14862Y-46663D01*
G54D30*
X-14862Y-46663D02*
X-14862Y-56663D01*
X-21862Y-63663D01*
G54D30*
X-28862Y-21663D02*
X-28862Y-46663D01*
X-37362Y-21663D02*
G54D18*
D03*
X-51362Y-21663D02*
G54D18*
D03*
X-37362Y-34163D02*
G54D18*
D03*
X-51362Y-34163D02*
G54D18*
D03*
X-37362Y-46663D02*
G54D18*
D03*
X-51362Y-46663D02*
G54D18*
D03*
G54D30*
X-28862Y-34163D02*
X-37362Y-34163D01*
G54D30*
X-28862Y-21663D02*
X-37362Y-21663D01*
G54D30*
X-36862Y-57163D02*
X-49362Y-57163D01*
G54D30*
X-37362Y-21663D02*
X-37362Y-46663D01*
G54D30*
X-36862Y-57163D02*
X-36862Y-47163D01*
X-37362Y-46663D01*
G54D30*
X-21862Y-83663D02*
X-24362Y-83663D01*
X-36862Y-71163D01*
G54D30*
X-36862Y-71163D02*
X-49362Y-71163D01*
X-37362Y-81663D02*
G54D18*
D03*
X-51362Y-81663D02*
G54D18*
D03*
X-37362Y-94163D02*
G54D18*
D03*
X-51362Y-94163D02*
G54D18*
D03*
X-37362Y-106663D02*
G54D18*
D03*
X-51362Y-106663D02*
G54D18*
D03*
G54D30*
X-37362Y-106663D02*
X-37362Y-81663D01*
G54D30*
X-28862Y-46663D02*
X-37362Y-46663D01*
G54D30*
X-37362Y-81663D02*
X-23862Y-81663D01*
X-21862Y-83663D01*
G54D31*
X-49362Y-57163D02*
X-55862Y-57163D01*
X-64362Y-48663D01*
X-74361Y-48663D01*
X-74862Y-49164D01*
G54D31*
X-49362Y-71163D02*
X-55362Y-71163D01*
X-66862Y-82663D01*
X-74364Y-82663D01*
X-74862Y-82164D01*
G54D31*
X-51362Y-46663D02*
X-58862Y-46663D01*
X-62862Y-42663D01*
X-76862Y-42663D01*
X-79862Y-45663D01*
X-79862Y-49164D01*
G54D31*
X-51362Y-34163D02*
X-58862Y-26663D01*
X-81362Y-26663D01*
X-89862Y-35163D01*
X-89862Y-49164D01*
G54D31*
X-51362Y-21663D02*
X-83362Y-21663D01*
X-94862Y-33163D01*
X-94862Y-49164D01*
X-82362Y-38164D02*
G54D14*
D03*
G54D31*
X-84862Y-49164D02*
X-84862Y-40664D01*
X-82362Y-38164D01*
X-21862Y-103663D02*
G54D17*
D03*
X-21862Y-123663D02*
G54D17*
D03*
G54D31*
X-51362Y-81663D02*
X-57862Y-81663D01*
X-72862Y-96663D01*
X-82862Y-96663D01*
X-84862Y-94663D01*
X-84862Y-82164D01*
X-78362Y-90164D02*
G54D14*
D03*
G54D31*
X-79862Y-82164D02*
X-79862Y-88664D01*
X-78362Y-90164D01*
G54D31*
X-51362Y-94163D02*
X-62362Y-94163D01*
X-70862Y-102663D01*
X-84862Y-102663D01*
X-89862Y-97663D01*
X-89862Y-82164D01*
G54D31*
X-51362Y-106663D02*
X-66862Y-106663D01*
X-67862Y-107663D01*
X-87862Y-107663D01*
X-94862Y-100663D01*
X-94862Y-82164D01*
X-101362Y-94663D02*
G54D18*
D03*
X-115362Y-94663D02*
G54D18*
D03*
G54D31*
X-99862Y-82164D02*
X-99862Y-93164D01*
X-101362Y-94663D01*
G54D31*
X-115362Y-94663D02*
X-115362Y-90442D01*
X-109863Y-84929D01*
X-109862Y-82164D01*
X-101362Y-107163D02*
G54D18*
D03*
X-115362Y-107163D02*
G54D18*
D03*
G54D31*
X-104862Y-82164D02*
X-104862Y-86664D01*
X-109053Y-90854D01*
X-109053Y-99472D01*
X-101362Y-107163D01*
X-124362Y-82663D02*
G54D13*
D03*
X-124362Y-68663D02*
G54D13*
D03*
X-119362Y-48663D02*
G54D18*
D03*
X-133362Y-48663D02*
G54D18*
D03*
G54D29*
X-113863Y-57419D02*
X-115106Y-57419D01*
X-118862Y-53663D01*
X-118862Y-49163D01*
X-119362Y-48663D01*
G54D31*
X-109862Y-49164D02*
X-109862Y-43662D01*
X-112862Y-40663D01*
X-127862Y-40663D01*
X-132862Y-45663D01*
X-132862Y-48163D01*
X-133362Y-48663D01*
G54D31*
X-133362Y-48663D02*
X-133362Y-51163D01*
X-121862Y-62663D01*
X-106861Y-62663D01*
X-103862Y-59664D01*
G54D31*
X-116237Y-82391D02*
X-118330Y-82666D01*
X-124362Y-82663D01*
G54D31*
X-124362Y-68663D02*
X-106864Y-68663D01*
X-103862Y-71664D01*
G54D29*
X-113863Y-73919D02*
X-115118Y-73919D01*
X-116862Y-75663D01*
X-142362Y-75663D01*
X-133862Y-63663D02*
G54D14*
D03*
X-121862Y-106663D02*
G54D14*
D03*
G54D31*
X-121862Y-106663D02*
X-115862Y-106663D01*
X-115362Y-107163D01*
X-130362Y-107663D02*
G54D13*
D03*
X-130362Y-93663D02*
G54D13*
D03*
X-130362Y-114164D02*
G54D14*
D03*
G54D31*
X-130362Y-114164D02*
X-130362Y-107663D01*
G54D31*
X-130362Y-93663D02*
X-130362Y-88663D01*
X-124362Y-82663D01*
X-93362Y-121163D02*
G54D18*
D03*
X-107362Y-121163D02*
G54D18*
D03*
X-116362Y-121163D02*
G54D18*
D03*
X-130362Y-121163D02*
G54D18*
D03*
G54D31*
X-130362Y-114164D02*
X-130362Y-121163D01*
X-93362Y-114164D02*
G54D14*
D03*
G54D31*
X-93362Y-114164D02*
X-93362Y-121163D01*
G54D31*
X-107362Y-121163D02*
X-116362Y-121163D01*
G54D31*
X-116362Y-121163D02*
X-116362Y-112163D01*
X-121862Y-106663D01*
X-112862Y-34163D02*
G54D13*
D03*
X-112862Y-20163D02*
G54D13*
D03*
G54D31*
X-99862Y-49164D02*
X-99862Y-42663D01*
X-104362Y-42663D01*
X-111362Y-35663D01*
X-142362Y-75663D02*
G54D13*
D03*
X-142362Y-61663D02*
G54D13*
D03*
G54D30*
X-21862Y-123663D02*
X-33362Y-123663D01*
X-37362Y-119664D01*
X-60362Y-114164D02*
G54D14*
D03*
G54D30*
X-51862Y-119663D02*
X-54864Y-119663D01*
X-60362Y-114164D01*
X-24362Y-160164D02*
G54D14*
D03*
G54D31*
X-30862Y-157663D02*
X-26864Y-157663D01*
X-24362Y-160164D01*
G54D31*
X-30862Y-162663D02*
X-26861Y-162663D01*
X-24362Y-160164D01*
G54D30*
X-21862Y-123663D02*
X-35862Y-123663D01*
X-44862Y-132663D01*
X-44862Y-157663D01*
X-17362Y-180162D02*
G54D13*
D03*
X-17362Y-166162D02*
G54D13*
D03*
G54D30*
X-24362Y-160164D02*
X-23360Y-160164D01*
X-17362Y-166162D01*
X-17362Y-187164D02*
G54D14*
D03*
G54D30*
X-17362Y-180162D02*
X-17362Y-187164D01*
G54D30*
X-30862Y-170663D02*
X-30862Y-185663D01*
X-32862Y-187663D01*
X-73362Y-187663D01*
X-73862Y-188163D01*
G36*
X-28362Y-170663D02*
X-33362Y-170663D01*
X-33362Y-168163D01*
X-28362Y-168163D01*
X-28362Y-170663D01*
G37*
G54D31*
X-58862Y-167663D02*
X-61862Y-167663D01*
X-64862Y-170663D01*
X-62862Y-172663D01*
X-58862Y-172663D01*
G54D30*
X-58862Y-170663D02*
X-97362Y-170663D01*
X-114862Y-188163D01*
G36*
X-58862Y-173163D02*
X-58862Y-168163D01*
X-56362Y-168163D01*
X-56362Y-173163D01*
X-58862Y-173163D01*
G37*
X-17362Y-151162D02*
G54D13*
D03*
X-17362Y-137162D02*
G54D13*
D03*
G54D31*
X-30862Y-142663D02*
X-30862Y-147663D01*
X-20861Y-147663D01*
X-17362Y-151162D01*
G54D31*
X-17362Y-137162D02*
X-17362Y-128164D01*
X-21862Y-123663D01*
X-24862Y-147663D02*
G54D14*
D03*
X-56862Y-130663D02*
G54D14*
D03*
G54D31*
X-58862Y-142663D02*
X-58862Y-132663D01*
X-56862Y-130663D01*
G54D31*
X-58862Y-147663D02*
X-49862Y-147663D01*
X-70362Y-159162D02*
G54D13*
D03*
X-70362Y-145162D02*
G54D13*
D03*
X-82362Y-159162D02*
G54D13*
D03*
X-82362Y-145162D02*
G54D13*
D03*
X-94362Y-159162D02*
G54D13*
D03*
X-94362Y-145162D02*
G54D13*
D03*
G54D31*
X-58862Y-152663D02*
X-63862Y-152663D01*
X-70362Y-159162D01*
G54D16*
X-58862Y-157663D02*
X-68862Y-157663D01*
X-70362Y-159162D01*
G54D31*
X-58862Y-162663D02*
X-63861Y-162663D01*
X-70362Y-159162D01*
G54D30*
X-58863Y-154285D02*
X-58862Y-160663D01*
G36*
X-56363Y-154285D02*
X-61363Y-154286D01*
X-61363Y-151786D01*
X-56363Y-151785D01*
X-56363Y-154285D01*
G37*
G36*
X-61362Y-160663D02*
X-56362Y-160663D01*
X-56362Y-163163D01*
X-61362Y-163163D01*
X-61362Y-160663D01*
G37*
G54D30*
X-70362Y-159162D02*
X-94362Y-159162D01*
G54D30*
X-94362Y-145162D02*
X-70362Y-145162D01*
X-69862Y-138663D02*
G54D14*
D03*
G54D30*
X-69862Y-138663D02*
X-69862Y-144663D01*
X-70362Y-145162D01*
X-120362Y-21663D02*
G54D14*
D03*
G54D31*
X-120362Y-21663D02*
X-114862Y-21663D01*
X-112862Y-20163D01*
X-104862Y-159663D02*
G54D14*
D03*
G54D30*
X-94362Y-159162D02*
X-104362Y-159162D01*
X-104862Y-159663D01*
G54D16*
X-104862Y-159663D02*
X-115862Y-159663D01*
X-120862Y-164663D01*
X-159862Y-164663D01*
X-171862Y-171663D01*
X-223862Y-171663D01*
X-226862Y-168663D01*
X-261862Y-168663D01*
X-271862Y-158663D01*
X-123862Y-32663D02*
G54D14*
D03*
G54D31*
X-111362Y-35663D02*
X-120862Y-35663D01*
X-123862Y-32663D01*
X-129362Y-145162D02*
G54D18*
D03*
X-115362Y-145162D02*
G54D18*
D03*
X-115362Y-133164D02*
G54D18*
D03*
X-101362Y-133164D02*
G54D18*
D03*
G54D31*
X-115362Y-145162D02*
X-115362Y-133164D01*
G54D31*
X-101362Y-133164D02*
X-101362Y-138162D01*
X-94362Y-145162D01*
G54D31*
X-115362Y-145162D02*
X-128862Y-158663D01*
X-154862Y-158663D01*
X-167862Y-145663D01*
X-220862Y-145663D01*
X-233862Y-158663D01*
X-251862Y-158663D01*
G54D31*
X-153862Y-171663D02*
X-153862Y-191663D01*
X-160862Y-198663D01*
X-232362Y-198162D01*
X-251862Y-178663D01*
X-181862Y-184663D02*
G54D32*
D03*
X-181862Y-158663D02*
G54D32*
D03*
X-207862Y-184663D02*
G54D32*
D03*
X-207862Y-158663D02*
G54D32*
D03*
X-194862Y-184663D02*
G54D14*
D03*
G54D30*
X-194862Y-184663D02*
X-207862Y-184663D01*
G54D30*
X-194862Y-184663D02*
X-181862Y-184663D01*
X-219862Y-158663D02*
G54D14*
D03*
X-169862Y-158663D02*
G54D14*
D03*
G54D30*
X-219862Y-158663D02*
X-207862Y-158663D01*
G54D30*
X-169862Y-158663D02*
X-181862Y-158663D01*
G54D16*
X-207862Y-158663D02*
X-207862Y-171663D01*
X-123862Y-130663D02*
G54D14*
D03*
G54D16*
X-123862Y-130663D02*
X-123862Y-138663D01*
X-135862Y-150663D01*
X-152862Y-150663D01*
X-152862Y-150663D02*
G54D14*
D03*
X-271862Y-88663D02*
G54D17*
D03*
X-271862Y-68663D02*
G54D17*
D03*
X-271862Y-48663D02*
G54D17*
D03*
X-271862Y-28663D02*
G54D17*
D03*
G54D30*
X-235362Y-116163D02*
X-244362Y-116163D01*
X-271862Y-88663D01*
G54D30*
X-235362Y-78063D02*
X-262462Y-78063D01*
X-271862Y-68663D01*
G54D30*
X-235362Y-65363D02*
X-255162Y-65363D01*
X-271862Y-48663D01*
G54D30*
X-235362Y-27263D02*
X-270462Y-27263D01*
X-271862Y-28663D01*
G54D16*
X-152862Y-150663D02*
X-152862Y-30163D01*
X-155862Y-27163D01*
X-175262Y-27163D01*
X-178362Y-27263D01*
G54D16*
X-178362Y-78063D02*
X-153262Y-78063D01*
X-152862Y-77663D01*
X-189862Y-116663D02*
G54D14*
D03*
G54D16*
X-189862Y-116663D02*
X-178862Y-116663D01*
X-178362Y-116163D01*
G54D16*
X-189862Y-116663D02*
X-189862Y-69663D01*
X-185862Y-65663D01*
X-178662Y-65663D01*
X-178362Y-65363D01*
X-259362Y-45162D02*
G54D13*
D03*
X-259362Y-31162D02*
G54D13*
D03*
X-257362Y-93162D02*
G54D13*
D03*
X-257362Y-79162D02*
G54D13*
D03*
G54D30*
X-257362Y-93162D02*
X-257362Y-94162D01*
X-261862Y-98663D01*
G54D30*
X-259362Y-45162D02*
X-259362Y-54162D01*
X-262862Y-57663D01*
X-219862Y-90663D02*
G54D14*
D03*
X-219862Y-84663D02*
G54D14*
D03*
G54D30*
X-235362Y-39963D02*
X-221562Y-39963D01*
X-219862Y-41663D01*
X-219862Y-90663D01*
G54D30*
X-235362Y-52663D02*
X-219862Y-52663D01*
G54D30*
X-235362Y-90763D02*
X-219962Y-90763D01*
X-219862Y-90663D01*
G54D30*
X-235362Y-103463D02*
X-221662Y-103463D01*
X-219862Y-101663D01*
X-219862Y-90663D01*
X-219862Y-96663D02*
G54D14*
D03*
X-153862Y-171663D02*
G54D14*
D03*
G54D16*
X-271862Y-138663D02*
X-271862Y-137663D01*
X-259862Y-125663D01*
X-227862Y-125663D01*
X-210862Y-108663D01*
X-210862Y-43663D01*
X-206862Y-39663D01*
X-182862Y-39663D01*
X-178362Y-39963D01*
G54D16*
X-251862Y-138663D02*
X-228862Y-138663D01*
X-200862Y-110663D01*
X-200862Y-65663D01*
X-187862Y-52663D01*
X-178362Y-52663D01*
X-164862Y-103663D02*
G54D14*
D03*
X-164862Y-91663D02*
G54D14*
D03*
G54D16*
X-164862Y-91663D02*
X-177462Y-91663D01*
X-178362Y-90763D01*
G54D16*
X-164862Y-103663D02*
X-178162Y-103663D01*
X-178362Y-103463D01*
X-230862Y-145663D02*
G54D14*
D03*
X-190362Y-128163D02*
G54D18*
D03*
X-204362Y-128163D02*
G54D18*
D03*
G54D16*
X-189862Y-116663D02*
X-189862Y-127663D01*
X-190362Y-128163D01*
G54D16*
X-204362Y-128163D02*
X-210362Y-128163D01*
X-227862Y-145663D01*
X-230862Y-145663D01*
G54D29*
X-133862Y-63663D02*
X-135858Y-61670D01*
X-142362Y-61663D01*
G54D31*
X-30862Y-152663D02*
X-26864Y-152663D01*
X-24367Y-155164D01*
X-24362Y-160164D01*
G54D16*
X-268860Y191339D02*
X-261862Y191337D01*
X-255862Y185337D01*
X-255862Y185337D02*
G54D14*
D03*
G54D16*
X-249362Y122837D02*
X-273362Y122837D01*
X-275862Y125337D01*
X-275862Y144496D01*
X-273446Y146844D01*
X-268362Y146837D01*
X-210862Y38837D02*
G54D33*
D03*
X-210862Y23837D02*
G54D33*
D03*
X-51362Y-119664D02*
G54D18*
D03*
X-37362Y-119664D02*
G54D18*
D03*
X-58862Y-38664D02*
G54D14*
D03*
G54D31*
X-58862Y-38664D02*
X-62362Y-34163D01*
G54D31*
X-82362Y-38164D02*
X-78862Y-38163D01*
X-76362Y-35663D01*
X-62362Y-35663D02*
G54D18*
D03*
X-76362Y-35663D02*
G54D18*
D03*
X-101862Y-34163D02*
G54D13*
D03*
X-101862Y-20163D02*
G54D13*
D03*
X-92862Y-21663D02*
G54D14*
D03*
G54D31*
X-101862Y-20163D02*
X-100362Y-21663D01*
X-92862Y-21663D01*
X-99862Y-36663D02*
G54D14*
D03*
X-100362Y-98663D02*
G54D14*
D03*
X-116237Y-82391D02*
G54D14*
D03*
M02*
