%FSLAX34Y34*%
%MOMM*%
%LNSOLDERMASK_BOTTOM*%
G71*
G01*
%ADD10C, 1.20*%
%ADD11C, 1.90*%
%ADD12C, 1.00*%
%LPD*%
X-204862Y181337D02*
G54D10*
D03*
X-34362Y98837D02*
G54D10*
D03*
X-271862Y28837D02*
G54D11*
D03*
X-271862Y48837D02*
G54D11*
D03*
X-271862Y68837D02*
G54D11*
D03*
X-271862Y88837D02*
G54D11*
D03*
X-204862Y195337D02*
G54D10*
D03*
X-268862Y205837D02*
G54D10*
D03*
X-224362Y121337D02*
G54D10*
D03*
X-255862Y132837D02*
G54D10*
D03*
X-34362Y143837D02*
G54D10*
D03*
X-34362Y68837D02*
G54D10*
D03*
X-181862Y23837D02*
G54D10*
D03*
X-251862Y28837D02*
G54D11*
D03*
X-251862Y48837D02*
G54D11*
D03*
X-251862Y68837D02*
G54D11*
D03*
X-251862Y88837D02*
G54D11*
D03*
X-26862Y113837D02*
G54D10*
D03*
X-181862Y143837D02*
G54D10*
D03*
X-181862Y113837D02*
G54D10*
D03*
X-181862Y83837D02*
G54D10*
D03*
X-216862Y103837D02*
G54D10*
D03*
X-209362Y91337D02*
G54D10*
D03*
X-208362Y61337D02*
G54D10*
D03*
X-181862Y38837D02*
G54D10*
D03*
X-169862Y23837D02*
G54D10*
D03*
X-159862Y86337D02*
G54D10*
D03*
X-159862Y111337D02*
G54D10*
D03*
X-271862Y-198663D02*
G54D11*
D03*
X-271862Y-178663D02*
G54D11*
D03*
X-271862Y-158663D02*
G54D11*
D03*
X-271862Y-138663D02*
G54D11*
D03*
X-251862Y-198663D02*
G54D11*
D03*
X-251862Y-178663D02*
G54D11*
D03*
X-251862Y-158663D02*
G54D11*
D03*
X-251862Y-138663D02*
G54D11*
D03*
X-44862Y-157663D02*
G54D12*
D03*
X-39862Y-157663D02*
G54D12*
D03*
X-49862Y-157663D02*
G54D12*
D03*
X-44862Y-152663D02*
G54D12*
D03*
X-39862Y-152663D02*
G54D12*
D03*
X-49862Y-152663D02*
G54D12*
D03*
X-44862Y-147663D02*
G54D12*
D03*
X-39862Y-147663D02*
G54D12*
D03*
X-49862Y-147663D02*
G54D12*
D03*
X-44862Y-162663D02*
G54D12*
D03*
X-39862Y-162663D02*
G54D12*
D03*
X-49862Y-162663D02*
G54D12*
D03*
X-44862Y-167663D02*
G54D12*
D03*
X-39862Y-167663D02*
G54D12*
D03*
X-49862Y-167663D02*
G54D12*
D03*
X-92362Y-65664D02*
G54D12*
D03*
X-92362Y-71664D02*
G54D12*
D03*
X-92362Y-59664D02*
G54D12*
D03*
X-103862Y-65664D02*
G54D12*
D03*
X-103862Y-71664D02*
G54D12*
D03*
X-103862Y-59664D02*
G54D12*
D03*
X-80862Y-65664D02*
G54D12*
D03*
X-80862Y-71664D02*
G54D12*
D03*
X-80862Y-59664D02*
G54D12*
D03*
X-21862Y-63663D02*
G54D11*
D03*
X-21862Y-83663D02*
G54D11*
D03*
X-82362Y-38164D02*
G54D10*
D03*
X-21862Y-103663D02*
G54D11*
D03*
X-21862Y-123663D02*
G54D11*
D03*
X-78362Y-90164D02*
G54D10*
D03*
X-133862Y-63663D02*
G54D10*
D03*
X-121862Y-106663D02*
G54D10*
D03*
X-130362Y-114164D02*
G54D10*
D03*
X-93362Y-114164D02*
G54D10*
D03*
X-60362Y-114164D02*
G54D10*
D03*
X-24362Y-160164D02*
G54D10*
D03*
X-17362Y-187164D02*
G54D10*
D03*
X-24862Y-147663D02*
G54D10*
D03*
X-56862Y-130663D02*
G54D10*
D03*
X-69862Y-138663D02*
G54D10*
D03*
X-120362Y-21663D02*
G54D10*
D03*
X-104862Y-159663D02*
G54D10*
D03*
X-123862Y-32663D02*
G54D10*
D03*
X-194862Y-184663D02*
G54D10*
D03*
X-219862Y-158663D02*
G54D10*
D03*
X-169862Y-158663D02*
G54D10*
D03*
X-123862Y-130663D02*
G54D10*
D03*
X-152862Y-150663D02*
G54D10*
D03*
X-271862Y-88663D02*
G54D11*
D03*
X-271862Y-68663D02*
G54D11*
D03*
X-271862Y-48663D02*
G54D11*
D03*
X-271862Y-28663D02*
G54D11*
D03*
X-189862Y-116663D02*
G54D10*
D03*
X-219862Y-90663D02*
G54D10*
D03*
X-219862Y-84663D02*
G54D10*
D03*
X-219862Y-96663D02*
G54D10*
D03*
X-153862Y-171663D02*
G54D10*
D03*
X-164862Y-103663D02*
G54D10*
D03*
X-164862Y-91663D02*
G54D10*
D03*
X-230862Y-145663D02*
G54D10*
D03*
X-255862Y185337D02*
G54D10*
D03*
X-58862Y-38664D02*
G54D10*
D03*
X-92862Y-21663D02*
G54D10*
D03*
X-99862Y-36663D02*
G54D10*
D03*
X-100362Y-98663D02*
G54D10*
D03*
X-116237Y-82391D02*
G54D10*
D03*
M02*
